G04 #@! TF.GenerationSoftware,KiCad,Pcbnew,(5.0.0)*
G04 #@! TF.CreationDate,2019-11-27T07:53:08+01:00*
G04 #@! TF.ProjectId,hexagon,68657861676F6E2E6B696361645F7063,rev?*
G04 #@! TF.SameCoordinates,Original*
G04 #@! TF.FileFunction,Copper,L2,Bot,Signal*
G04 #@! TF.FilePolarity,Positive*
%FSLAX46Y46*%
G04 Gerber Fmt 4.6, Leading zero omitted, Abs format (unit mm)*
G04 Created by KiCad (PCBNEW (5.0.0)) date 11/27/19 07:53:08*
%MOMM*%
%LPD*%
G01*
G04 APERTURE LIST*
G04 #@! TA.AperFunction,SMDPad,CuDef*
%ADD10R,1.000760X1.249680*%
G04 #@! TD*
G04 #@! TA.AperFunction,ComponentPad*
%ADD11C,2.400000*%
G04 #@! TD*
G04 #@! TA.AperFunction,ComponentPad*
%ADD12R,2.400000X2.400000*%
G04 #@! TD*
G04 #@! TA.AperFunction,ViaPad*
%ADD13C,0.800000*%
G04 #@! TD*
G04 #@! TA.AperFunction,Conductor*
%ADD14C,0.250000*%
G04 #@! TD*
G04 #@! TA.AperFunction,Conductor*
%ADD15C,0.100000*%
G04 #@! TD*
G04 #@! TA.AperFunction,Conductor*
%ADD16C,0.254000*%
G04 #@! TD*
G04 APERTURE END LIST*
D10*
G04 #@! TO.P,C5,2*
G04 #@! TO.N,GNDD*
X81000760Y-36975000D03*
G04 #@! TO.P,C5,1*
G04 #@! TO.N,+3V3*
X78999240Y-36975000D03*
G04 #@! TD*
G04 #@! TO.P,R1,1*
G04 #@! TO.N,+3V3*
X84499240Y-34975000D03*
G04 #@! TO.P,R1,2*
G04 #@! TO.N,/SCL*
X86500760Y-34975000D03*
G04 #@! TD*
G04 #@! TO.P,C4,1*
G04 #@! TO.N,+3V3*
X81000760Y-27975000D03*
G04 #@! TO.P,C4,2*
G04 #@! TO.N,GNDD*
X78999240Y-27975000D03*
G04 #@! TD*
G04 #@! TO.P,R2,2*
G04 #@! TO.N,/SDA*
X86500760Y-29975000D03*
G04 #@! TO.P,R2,1*
G04 #@! TO.N,+3V3*
X84499240Y-29975000D03*
G04 #@! TD*
G04 #@! TO.P,C2,1*
G04 #@! TO.N,+3V3*
X78999240Y-32475000D03*
G04 #@! TO.P,C2,2*
G04 #@! TO.N,GNDD*
X81000760Y-32475000D03*
G04 #@! TD*
D11*
G04 #@! TO.P,J5,4*
G04 #@! TO.N,GNDD*
X98300000Y-27225000D03*
G04 #@! TO.P,J5,3*
G04 #@! TO.N,/SDA*
X98300000Y-30725000D03*
D12*
G04 #@! TO.P,J5,1*
G04 #@! TO.N,+3V3*
X98300000Y-37725000D03*
D11*
G04 #@! TO.P,J5,2*
G04 #@! TO.N,/SCL*
X98300000Y-34225000D03*
G04 #@! TD*
G04 #@! TO.P,J6,2*
G04 #@! TO.N,/SDA*
X31700000Y-69999800D03*
D12*
G04 #@! TO.P,J6,1*
G04 #@! TO.N,GNDD*
X31700000Y-73499800D03*
D11*
G04 #@! TO.P,J6,3*
G04 #@! TO.N,/SCL*
X31700000Y-66499800D03*
G04 #@! TO.P,J6,4*
G04 #@! TO.N,+3V3*
X31700000Y-62999800D03*
G04 #@! TD*
G04 #@! TO.P,J1,4*
G04 #@! TO.N,+5V*
X31700000Y-86750000D03*
G04 #@! TO.P,J1,3*
X31700000Y-90250000D03*
D12*
G04 #@! TO.P,J1,1*
X31700000Y-97250000D03*
D11*
G04 #@! TO.P,J1,2*
X31700000Y-93750000D03*
G04 #@! TD*
G04 #@! TO.P,J2,2*
G04 #@! TO.N,GNDD*
X31700000Y-111750000D03*
D12*
G04 #@! TO.P,J2,1*
X31700000Y-115250000D03*
D11*
G04 #@! TO.P,J2,3*
X31700000Y-108250000D03*
G04 #@! TO.P,J2,4*
X31700000Y-104750000D03*
G04 #@! TD*
G04 #@! TO.P,J3,6*
G04 #@! TO.N,+5V*
X68300000Y-90250000D03*
G04 #@! TO.P,J3,5*
X68300000Y-86750000D03*
G04 #@! TO.P,J3,4*
X68300000Y-83250000D03*
G04 #@! TO.P,J3,3*
X68300000Y-79750000D03*
D12*
G04 #@! TO.P,J3,1*
X68300000Y-72750000D03*
D11*
G04 #@! TO.P,J3,2*
X68300000Y-76250000D03*
G04 #@! TD*
G04 #@! TO.P,J4,2*
G04 #@! TO.N,GNDD*
X68300000Y-101250000D03*
D12*
G04 #@! TO.P,J4,1*
X68300000Y-97750000D03*
D11*
G04 #@! TO.P,J4,3*
X68300000Y-104750000D03*
G04 #@! TO.P,J4,4*
X68300000Y-108250000D03*
G04 #@! TO.P,J4,5*
X68300000Y-111750000D03*
G04 #@! TO.P,J4,6*
X68300000Y-115250000D03*
G04 #@! TD*
G04 #@! TO.P,J7,2*
G04 #@! TO.N,Net-(J7-Pad1)*
X68300000Y-56750000D03*
D12*
G04 #@! TO.P,J7,1*
X68300000Y-53250000D03*
G04 #@! TD*
D13*
G04 #@! TO.N,GNDD*
X78900000Y-27950740D03*
X77597100Y-35903300D03*
X81000760Y-37020900D03*
X77941100Y-33401400D03*
G04 #@! TO.N,+5V*
X52651660Y-85661500D03*
G04 #@! TO.N,+3V3*
X50330100Y-76161500D03*
X50330100Y-82461500D03*
X44894500Y-78249780D03*
X40195500Y-69423280D03*
X34714180Y-59372500D03*
X31610300Y-57398920D03*
X79692600Y-33949999D03*
X81000760Y-27975000D03*
X79025000Y-36995140D03*
X82989000Y-35250000D03*
G04 #@! TO.N,/SDA*
X86500760Y-29975000D03*
G04 #@! TO.N,/SCL*
X86500760Y-34975000D03*
G04 #@! TD*
D14*
G04 #@! TO.N,GNDD*
X81000760Y-33349840D02*
X81000760Y-36975000D01*
X77941100Y-33967085D02*
X77940000Y-33968185D01*
X77940000Y-35560400D02*
X77597100Y-35903300D01*
X77940000Y-35374599D02*
X77940000Y-35560400D01*
X77941100Y-33401400D02*
X77941100Y-33967085D01*
X77940000Y-33968185D02*
X77940000Y-35374599D01*
X81000760Y-32475000D02*
X81000760Y-33349840D01*
G04 #@! TO.N,+5V*
X67892000Y-77094200D02*
X67884500Y-77101700D01*
X69342000Y-77094200D02*
X67892000Y-77094200D01*
X52651660Y-89306400D02*
X52832000Y-89486740D01*
X52651660Y-86536340D02*
X52651660Y-89204800D01*
X52651660Y-85661500D02*
X52651660Y-86536340D01*
X52651660Y-88595200D02*
X52651660Y-89204800D01*
X52651660Y-89204800D02*
X52651660Y-89306400D01*
G04 #@! TO.N,+3V3*
X50330100Y-82461500D02*
X50330100Y-81013300D01*
X50330100Y-81013300D02*
X50190400Y-80873600D01*
G04 #@! TD*
D15*
G04 #@! TO.N,+5V*
G36*
X66835688Y-71055507D02*
X66744296Y-71116573D01*
X66666573Y-71194296D01*
X66605507Y-71285688D01*
X66563444Y-71387238D01*
X66542000Y-71495042D01*
X66542000Y-72010500D01*
X66681500Y-72150000D01*
X67700000Y-72150000D01*
X67700000Y-71780000D01*
X68900000Y-71780000D01*
X68900000Y-72150000D01*
X69918500Y-72150000D01*
X70058000Y-72010500D01*
X70058000Y-71495042D01*
X70036556Y-71387238D01*
X69994493Y-71285688D01*
X69933427Y-71194296D01*
X69855704Y-71116573D01*
X69764312Y-71055507D01*
X69751017Y-71050000D01*
X74375001Y-71050000D01*
X74375000Y-117375000D01*
X25625000Y-117375000D01*
X25625000Y-114050000D01*
X29947339Y-114050000D01*
X29947339Y-116450000D01*
X29957958Y-116557819D01*
X29989408Y-116661494D01*
X30040479Y-116757042D01*
X30109210Y-116840790D01*
X30192958Y-116909521D01*
X30288506Y-116960592D01*
X30392181Y-116992042D01*
X30500000Y-117002661D01*
X32900000Y-117002661D01*
X33007819Y-116992042D01*
X33111494Y-116960592D01*
X33207042Y-116909521D01*
X33290790Y-116840790D01*
X33359521Y-116757042D01*
X33410592Y-116661494D01*
X33442042Y-116557819D01*
X33452661Y-116450000D01*
X33452661Y-114050000D01*
X33442042Y-113942181D01*
X33410592Y-113838506D01*
X33359521Y-113742958D01*
X33290790Y-113659210D01*
X33207042Y-113590479D01*
X33111494Y-113539408D01*
X33007819Y-113507958D01*
X32900000Y-113497339D01*
X31885738Y-113497339D01*
X32210456Y-113432749D01*
X32528936Y-113300830D01*
X32815560Y-113109314D01*
X33059314Y-112865560D01*
X33250830Y-112578936D01*
X33382749Y-112260456D01*
X33450000Y-111922360D01*
X33450000Y-111788243D01*
X37850000Y-111788243D01*
X37850000Y-112211757D01*
X37932623Y-112627132D01*
X38094695Y-113018407D01*
X38329986Y-113370545D01*
X38629455Y-113670014D01*
X38981593Y-113905305D01*
X39372868Y-114067377D01*
X39788243Y-114150000D01*
X40211757Y-114150000D01*
X40627132Y-114067377D01*
X41018407Y-113905305D01*
X41370545Y-113670014D01*
X41670014Y-113370545D01*
X41905305Y-113018407D01*
X42067377Y-112627132D01*
X42150000Y-112211757D01*
X42150000Y-111788243D01*
X57850000Y-111788243D01*
X57850000Y-112211757D01*
X57932623Y-112627132D01*
X58094695Y-113018407D01*
X58329986Y-113370545D01*
X58629455Y-113670014D01*
X58981593Y-113905305D01*
X59372868Y-114067377D01*
X59788243Y-114150000D01*
X60211757Y-114150000D01*
X60627132Y-114067377D01*
X61018407Y-113905305D01*
X61370545Y-113670014D01*
X61670014Y-113370545D01*
X61905305Y-113018407D01*
X62067377Y-112627132D01*
X62150000Y-112211757D01*
X62150000Y-111788243D01*
X62067377Y-111372868D01*
X61905305Y-110981593D01*
X61670014Y-110629455D01*
X61370545Y-110329986D01*
X61018407Y-110094695D01*
X60627132Y-109932623D01*
X60211757Y-109850000D01*
X59788243Y-109850000D01*
X59372868Y-109932623D01*
X58981593Y-110094695D01*
X58629455Y-110329986D01*
X58329986Y-110629455D01*
X58094695Y-110981593D01*
X57932623Y-111372868D01*
X57850000Y-111788243D01*
X42150000Y-111788243D01*
X42067377Y-111372868D01*
X41905305Y-110981593D01*
X41670014Y-110629455D01*
X41370545Y-110329986D01*
X41018407Y-110094695D01*
X40627132Y-109932623D01*
X40211757Y-109850000D01*
X39788243Y-109850000D01*
X39372868Y-109932623D01*
X38981593Y-110094695D01*
X38629455Y-110329986D01*
X38329986Y-110629455D01*
X38094695Y-110981593D01*
X37932623Y-111372868D01*
X37850000Y-111788243D01*
X33450000Y-111788243D01*
X33450000Y-111577640D01*
X33382749Y-111239544D01*
X33250830Y-110921064D01*
X33059314Y-110634440D01*
X32815560Y-110390686D01*
X32528936Y-110199170D01*
X32210456Y-110067251D01*
X31872360Y-110000000D01*
X32210456Y-109932749D01*
X32528936Y-109800830D01*
X32815560Y-109609314D01*
X33059314Y-109365560D01*
X33250830Y-109078936D01*
X33382749Y-108760456D01*
X33450000Y-108422360D01*
X33450000Y-108077640D01*
X33382749Y-107739544D01*
X33250830Y-107421064D01*
X33059314Y-107134440D01*
X32815560Y-106890686D01*
X32528936Y-106699170D01*
X32210456Y-106567251D01*
X31872360Y-106500000D01*
X32210456Y-106432749D01*
X32528936Y-106300830D01*
X32815560Y-106109314D01*
X33059314Y-105865560D01*
X33250830Y-105578936D01*
X33382749Y-105260456D01*
X33450000Y-104922360D01*
X33450000Y-104577640D01*
X33382749Y-104239544D01*
X33250830Y-103921064D01*
X33059314Y-103634440D01*
X32815560Y-103390686D01*
X32528936Y-103199170D01*
X32210456Y-103067251D01*
X31872360Y-103000000D01*
X31527640Y-103000000D01*
X31189544Y-103067251D01*
X30871064Y-103199170D01*
X30584440Y-103390686D01*
X30340686Y-103634440D01*
X30149170Y-103921064D01*
X30017251Y-104239544D01*
X29950000Y-104577640D01*
X29950000Y-104922360D01*
X30017251Y-105260456D01*
X30149170Y-105578936D01*
X30340686Y-105865560D01*
X30584440Y-106109314D01*
X30871064Y-106300830D01*
X31189544Y-106432749D01*
X31527640Y-106500000D01*
X31189544Y-106567251D01*
X30871064Y-106699170D01*
X30584440Y-106890686D01*
X30340686Y-107134440D01*
X30149170Y-107421064D01*
X30017251Y-107739544D01*
X29950000Y-108077640D01*
X29950000Y-108422360D01*
X30017251Y-108760456D01*
X30149170Y-109078936D01*
X30340686Y-109365560D01*
X30584440Y-109609314D01*
X30871064Y-109800830D01*
X31189544Y-109932749D01*
X31527640Y-110000000D01*
X31189544Y-110067251D01*
X30871064Y-110199170D01*
X30584440Y-110390686D01*
X30340686Y-110634440D01*
X30149170Y-110921064D01*
X30017251Y-111239544D01*
X29950000Y-111577640D01*
X29950000Y-111922360D01*
X30017251Y-112260456D01*
X30149170Y-112578936D01*
X30340686Y-112865560D01*
X30584440Y-113109314D01*
X30871064Y-113300830D01*
X31189544Y-113432749D01*
X31514262Y-113497339D01*
X30500000Y-113497339D01*
X30392181Y-113507958D01*
X30288506Y-113539408D01*
X30192958Y-113590479D01*
X30109210Y-113659210D01*
X30040479Y-113742958D01*
X29989408Y-113838506D01*
X29957958Y-113942181D01*
X29947339Y-114050000D01*
X25625000Y-114050000D01*
X25625000Y-97989500D01*
X29942000Y-97989500D01*
X29942000Y-98504958D01*
X29963444Y-98612762D01*
X30005507Y-98714312D01*
X30066573Y-98805704D01*
X30144296Y-98883427D01*
X30235688Y-98944493D01*
X30337237Y-98986556D01*
X30445042Y-99008000D01*
X30960500Y-99008000D01*
X31100000Y-98868500D01*
X31100000Y-97850000D01*
X32300000Y-97850000D01*
X32300000Y-98868500D01*
X32439500Y-99008000D01*
X32954958Y-99008000D01*
X33062763Y-98986556D01*
X33164312Y-98944493D01*
X33255704Y-98883427D01*
X33333427Y-98805704D01*
X33394493Y-98714312D01*
X33436556Y-98612762D01*
X33458000Y-98504958D01*
X33458000Y-97989500D01*
X33318500Y-97850000D01*
X32300000Y-97850000D01*
X31100000Y-97850000D01*
X30081500Y-97850000D01*
X29942000Y-97989500D01*
X25625000Y-97989500D01*
X25625000Y-95995042D01*
X29942000Y-95995042D01*
X29942000Y-96510500D01*
X30081500Y-96650000D01*
X31100000Y-96650000D01*
X31100000Y-96280000D01*
X32300000Y-96280000D01*
X32300000Y-96650000D01*
X33318500Y-96650000D01*
X33418500Y-96550000D01*
X66547339Y-96550000D01*
X66547339Y-98950000D01*
X66557958Y-99057819D01*
X66589408Y-99161494D01*
X66640479Y-99257042D01*
X66709210Y-99340790D01*
X66792958Y-99409521D01*
X66888506Y-99460592D01*
X66992181Y-99492042D01*
X67100000Y-99502661D01*
X68114262Y-99502661D01*
X67789544Y-99567251D01*
X67471064Y-99699170D01*
X67184440Y-99890686D01*
X66940686Y-100134440D01*
X66749170Y-100421064D01*
X66617251Y-100739544D01*
X66550000Y-101077640D01*
X66550000Y-101422360D01*
X66617251Y-101760456D01*
X66749170Y-102078936D01*
X66940686Y-102365560D01*
X67184440Y-102609314D01*
X67471064Y-102800830D01*
X67789544Y-102932749D01*
X68127640Y-103000000D01*
X67789544Y-103067251D01*
X67471064Y-103199170D01*
X67184440Y-103390686D01*
X66940686Y-103634440D01*
X66749170Y-103921064D01*
X66617251Y-104239544D01*
X66550000Y-104577640D01*
X66550000Y-104922360D01*
X66617251Y-105260456D01*
X66749170Y-105578936D01*
X66940686Y-105865560D01*
X67184440Y-106109314D01*
X67471064Y-106300830D01*
X67789544Y-106432749D01*
X68127640Y-106500000D01*
X67789544Y-106567251D01*
X67471064Y-106699170D01*
X67184440Y-106890686D01*
X66940686Y-107134440D01*
X66749170Y-107421064D01*
X66617251Y-107739544D01*
X66550000Y-108077640D01*
X66550000Y-108422360D01*
X66617251Y-108760456D01*
X66749170Y-109078936D01*
X66940686Y-109365560D01*
X67184440Y-109609314D01*
X67471064Y-109800830D01*
X67789544Y-109932749D01*
X68127640Y-110000000D01*
X67789544Y-110067251D01*
X67471064Y-110199170D01*
X67184440Y-110390686D01*
X66940686Y-110634440D01*
X66749170Y-110921064D01*
X66617251Y-111239544D01*
X66550000Y-111577640D01*
X66550000Y-111922360D01*
X66617251Y-112260456D01*
X66749170Y-112578936D01*
X66940686Y-112865560D01*
X67184440Y-113109314D01*
X67471064Y-113300830D01*
X67789544Y-113432749D01*
X68127640Y-113500000D01*
X67789544Y-113567251D01*
X67471064Y-113699170D01*
X67184440Y-113890686D01*
X66940686Y-114134440D01*
X66749170Y-114421064D01*
X66617251Y-114739544D01*
X66550000Y-115077640D01*
X66550000Y-115422360D01*
X66617251Y-115760456D01*
X66749170Y-116078936D01*
X66940686Y-116365560D01*
X67184440Y-116609314D01*
X67471064Y-116800830D01*
X67789544Y-116932749D01*
X68127640Y-117000000D01*
X68472360Y-117000000D01*
X68810456Y-116932749D01*
X69128936Y-116800830D01*
X69415560Y-116609314D01*
X69659314Y-116365560D01*
X69850830Y-116078936D01*
X69982749Y-115760456D01*
X70050000Y-115422360D01*
X70050000Y-115077640D01*
X69982749Y-114739544D01*
X69850830Y-114421064D01*
X69659314Y-114134440D01*
X69415560Y-113890686D01*
X69128936Y-113699170D01*
X68810456Y-113567251D01*
X68472360Y-113500000D01*
X68810456Y-113432749D01*
X69128936Y-113300830D01*
X69415560Y-113109314D01*
X69659314Y-112865560D01*
X69850830Y-112578936D01*
X69982749Y-112260456D01*
X70050000Y-111922360D01*
X70050000Y-111577640D01*
X69982749Y-111239544D01*
X69850830Y-110921064D01*
X69659314Y-110634440D01*
X69415560Y-110390686D01*
X69128936Y-110199170D01*
X68810456Y-110067251D01*
X68472360Y-110000000D01*
X68810456Y-109932749D01*
X69128936Y-109800830D01*
X69415560Y-109609314D01*
X69659314Y-109365560D01*
X69850830Y-109078936D01*
X69982749Y-108760456D01*
X70050000Y-108422360D01*
X70050000Y-108077640D01*
X69982749Y-107739544D01*
X69850830Y-107421064D01*
X69659314Y-107134440D01*
X69415560Y-106890686D01*
X69128936Y-106699170D01*
X68810456Y-106567251D01*
X68472360Y-106500000D01*
X68810456Y-106432749D01*
X69128936Y-106300830D01*
X69415560Y-106109314D01*
X69659314Y-105865560D01*
X69850830Y-105578936D01*
X69982749Y-105260456D01*
X70050000Y-104922360D01*
X70050000Y-104577640D01*
X69982749Y-104239544D01*
X69850830Y-103921064D01*
X69659314Y-103634440D01*
X69415560Y-103390686D01*
X69128936Y-103199170D01*
X68810456Y-103067251D01*
X68472360Y-103000000D01*
X68810456Y-102932749D01*
X69128936Y-102800830D01*
X69415560Y-102609314D01*
X69659314Y-102365560D01*
X69850830Y-102078936D01*
X69982749Y-101760456D01*
X70050000Y-101422360D01*
X70050000Y-101077640D01*
X69982749Y-100739544D01*
X69850830Y-100421064D01*
X69659314Y-100134440D01*
X69415560Y-99890686D01*
X69128936Y-99699170D01*
X68810456Y-99567251D01*
X68485738Y-99502661D01*
X69500000Y-99502661D01*
X69607819Y-99492042D01*
X69711494Y-99460592D01*
X69807042Y-99409521D01*
X69890790Y-99340790D01*
X69959521Y-99257042D01*
X70010592Y-99161494D01*
X70042042Y-99057819D01*
X70052661Y-98950000D01*
X70052661Y-96550000D01*
X70042042Y-96442181D01*
X70010592Y-96338506D01*
X69959521Y-96242958D01*
X69890790Y-96159210D01*
X69807042Y-96090479D01*
X69711494Y-96039408D01*
X69607819Y-96007958D01*
X69500000Y-95997339D01*
X67100000Y-95997339D01*
X66992181Y-96007958D01*
X66888506Y-96039408D01*
X66792958Y-96090479D01*
X66709210Y-96159210D01*
X66640479Y-96242958D01*
X66589408Y-96338506D01*
X66557958Y-96442181D01*
X66547339Y-96550000D01*
X33418500Y-96550000D01*
X33458000Y-96510500D01*
X33458000Y-95995042D01*
X33436556Y-95887238D01*
X33394493Y-95785688D01*
X33333427Y-95694296D01*
X33255704Y-95616573D01*
X33164312Y-95555507D01*
X33062763Y-95513444D01*
X32954958Y-95492000D01*
X31964172Y-95492000D01*
X32191188Y-95446843D01*
X32345116Y-95243644D01*
X31700000Y-94598528D01*
X31054884Y-95243644D01*
X31208812Y-95446843D01*
X31452000Y-95492000D01*
X30445042Y-95492000D01*
X30337237Y-95513444D01*
X30235688Y-95555507D01*
X30144296Y-95616573D01*
X30066573Y-95694296D01*
X30005507Y-95785688D01*
X29963444Y-95887238D01*
X29942000Y-95995042D01*
X25625000Y-95995042D01*
X25625000Y-93599287D01*
X29939935Y-93599287D01*
X29944351Y-93945555D01*
X30003157Y-94241188D01*
X30206356Y-94395116D01*
X30851472Y-93750000D01*
X32548528Y-93750000D01*
X33193644Y-94395116D01*
X33396843Y-94241188D01*
X33460065Y-93900713D01*
X33455649Y-93554445D01*
X33396843Y-93258812D01*
X33193644Y-93104884D01*
X32548528Y-93750000D01*
X30851472Y-93750000D01*
X30206356Y-93104884D01*
X30003157Y-93258812D01*
X29939935Y-93599287D01*
X25625000Y-93599287D01*
X25625000Y-91743644D01*
X31054884Y-91743644D01*
X31208812Y-91946843D01*
X31485237Y-91998172D01*
X31208812Y-92053157D01*
X31054884Y-92256356D01*
X31700000Y-92901472D01*
X32345116Y-92256356D01*
X32191188Y-92053157D01*
X31914763Y-92001828D01*
X32191188Y-91946843D01*
X32345116Y-91743644D01*
X67654884Y-91743644D01*
X67808812Y-91946843D01*
X68149287Y-92010065D01*
X68495555Y-92005649D01*
X68791188Y-91946843D01*
X68945116Y-91743644D01*
X68300000Y-91098528D01*
X67654884Y-91743644D01*
X32345116Y-91743644D01*
X31700000Y-91098528D01*
X31054884Y-91743644D01*
X25625000Y-91743644D01*
X25625000Y-90099287D01*
X29939935Y-90099287D01*
X29944351Y-90445555D01*
X30003157Y-90741188D01*
X30206356Y-90895116D01*
X30851472Y-90250000D01*
X32548528Y-90250000D01*
X33193644Y-90895116D01*
X33396843Y-90741188D01*
X33460065Y-90400713D01*
X33456221Y-90099287D01*
X66539935Y-90099287D01*
X66544351Y-90445555D01*
X66603157Y-90741188D01*
X66806356Y-90895116D01*
X67451472Y-90250000D01*
X69148528Y-90250000D01*
X69793644Y-90895116D01*
X69996843Y-90741188D01*
X70060065Y-90400713D01*
X70055649Y-90054445D01*
X69996843Y-89758812D01*
X69793644Y-89604884D01*
X69148528Y-90250000D01*
X67451472Y-90250000D01*
X66806356Y-89604884D01*
X66603157Y-89758812D01*
X66539935Y-90099287D01*
X33456221Y-90099287D01*
X33455649Y-90054445D01*
X33396843Y-89758812D01*
X33193644Y-89604884D01*
X32548528Y-90250000D01*
X30851472Y-90250000D01*
X30206356Y-89604884D01*
X30003157Y-89758812D01*
X29939935Y-90099287D01*
X25625000Y-90099287D01*
X25625000Y-88243644D01*
X31054884Y-88243644D01*
X31208812Y-88446843D01*
X31485237Y-88498172D01*
X31208812Y-88553157D01*
X31054884Y-88756356D01*
X31700000Y-89401472D01*
X32345116Y-88756356D01*
X32191188Y-88553157D01*
X31914763Y-88501828D01*
X32191188Y-88446843D01*
X32345116Y-88243644D01*
X67654884Y-88243644D01*
X67808812Y-88446843D01*
X68085237Y-88498172D01*
X67808812Y-88553157D01*
X67654884Y-88756356D01*
X68300000Y-89401472D01*
X68945116Y-88756356D01*
X68791188Y-88553157D01*
X68514763Y-88501828D01*
X68791188Y-88446843D01*
X68945116Y-88243644D01*
X68300000Y-87598528D01*
X67654884Y-88243644D01*
X32345116Y-88243644D01*
X31700000Y-87598528D01*
X31054884Y-88243644D01*
X25625000Y-88243644D01*
X25625000Y-86599287D01*
X29939935Y-86599287D01*
X29944351Y-86945555D01*
X30003157Y-87241188D01*
X30206356Y-87395116D01*
X30851472Y-86750000D01*
X32548528Y-86750000D01*
X33193644Y-87395116D01*
X33396843Y-87241188D01*
X33460065Y-86900713D01*
X33455649Y-86554445D01*
X33396843Y-86258812D01*
X33193644Y-86104884D01*
X32548528Y-86750000D01*
X30851472Y-86750000D01*
X30206356Y-86104884D01*
X30003157Y-86258812D01*
X29939935Y-86599287D01*
X25625000Y-86599287D01*
X25625000Y-85050000D01*
X31224683Y-85050000D01*
X31208812Y-85053157D01*
X31054884Y-85256356D01*
X31700000Y-85901472D01*
X32345116Y-85256356D01*
X32191188Y-85053157D01*
X32174186Y-85050000D01*
X34750000Y-85050000D01*
X34750000Y-87600000D01*
X34750961Y-87609755D01*
X34753806Y-87619134D01*
X34758427Y-87627779D01*
X34764645Y-87635355D01*
X34772221Y-87641573D01*
X34780866Y-87646194D01*
X34790245Y-87649039D01*
X34800000Y-87650000D01*
X65200000Y-87650000D01*
X65209755Y-87649039D01*
X65219134Y-87646194D01*
X65227779Y-87641573D01*
X65235355Y-87635355D01*
X65241573Y-87627779D01*
X65246194Y-87619134D01*
X65249039Y-87609755D01*
X65250000Y-87600000D01*
X65250000Y-86599287D01*
X66539935Y-86599287D01*
X66544351Y-86945555D01*
X66603157Y-87241188D01*
X66806356Y-87395116D01*
X67451472Y-86750000D01*
X69148528Y-86750000D01*
X69793644Y-87395116D01*
X69996843Y-87241188D01*
X70060065Y-86900713D01*
X70055649Y-86554445D01*
X69996843Y-86258812D01*
X69793644Y-86104884D01*
X69148528Y-86750000D01*
X67451472Y-86750000D01*
X66806356Y-86104884D01*
X66603157Y-86258812D01*
X66539935Y-86599287D01*
X65250000Y-86599287D01*
X65250000Y-84743644D01*
X67654884Y-84743644D01*
X67808812Y-84946843D01*
X68085237Y-84998172D01*
X67808812Y-85053157D01*
X67654884Y-85256356D01*
X68300000Y-85901472D01*
X68945116Y-85256356D01*
X68791188Y-85053157D01*
X68514763Y-85001828D01*
X68791188Y-84946843D01*
X68945116Y-84743644D01*
X68300000Y-84098528D01*
X67654884Y-84743644D01*
X65250000Y-84743644D01*
X65250000Y-83099287D01*
X66539935Y-83099287D01*
X66544351Y-83445555D01*
X66603157Y-83741188D01*
X66806356Y-83895116D01*
X67451472Y-83250000D01*
X69148528Y-83250000D01*
X69793644Y-83895116D01*
X69996843Y-83741188D01*
X70060065Y-83400713D01*
X70055649Y-83054445D01*
X69996843Y-82758812D01*
X69793644Y-82604884D01*
X69148528Y-83250000D01*
X67451472Y-83250000D01*
X66806356Y-82604884D01*
X66603157Y-82758812D01*
X66539935Y-83099287D01*
X65250000Y-83099287D01*
X65250000Y-81243644D01*
X67654884Y-81243644D01*
X67808812Y-81446843D01*
X68085237Y-81498172D01*
X67808812Y-81553157D01*
X67654884Y-81756356D01*
X68300000Y-82401472D01*
X68945116Y-81756356D01*
X68791188Y-81553157D01*
X68514763Y-81501828D01*
X68791188Y-81446843D01*
X68945116Y-81243644D01*
X68300000Y-80598528D01*
X67654884Y-81243644D01*
X65250000Y-81243644D01*
X65250000Y-79599287D01*
X66539935Y-79599287D01*
X66544351Y-79945555D01*
X66603157Y-80241188D01*
X66806356Y-80395116D01*
X67451472Y-79750000D01*
X69148528Y-79750000D01*
X69793644Y-80395116D01*
X69996843Y-80241188D01*
X70060065Y-79900713D01*
X70055649Y-79554445D01*
X69996843Y-79258812D01*
X69793644Y-79104884D01*
X69148528Y-79750000D01*
X67451472Y-79750000D01*
X66806356Y-79104884D01*
X66603157Y-79258812D01*
X66539935Y-79599287D01*
X65250000Y-79599287D01*
X65250000Y-77743644D01*
X67654884Y-77743644D01*
X67808812Y-77946843D01*
X68085237Y-77998172D01*
X67808812Y-78053157D01*
X67654884Y-78256356D01*
X68300000Y-78901472D01*
X68945116Y-78256356D01*
X68791188Y-78053157D01*
X68514763Y-78001828D01*
X68791188Y-77946843D01*
X68945116Y-77743644D01*
X68300000Y-77098528D01*
X67654884Y-77743644D01*
X65250000Y-77743644D01*
X65250000Y-76099287D01*
X66539935Y-76099287D01*
X66544351Y-76445555D01*
X66603157Y-76741188D01*
X66806356Y-76895116D01*
X67451472Y-76250000D01*
X69148528Y-76250000D01*
X69793644Y-76895116D01*
X69996843Y-76741188D01*
X70060065Y-76400713D01*
X70055649Y-76054445D01*
X69996843Y-75758812D01*
X69793644Y-75604884D01*
X69148528Y-76250000D01*
X67451472Y-76250000D01*
X66806356Y-75604884D01*
X66603157Y-75758812D01*
X66539935Y-76099287D01*
X65250000Y-76099287D01*
X65250000Y-73489500D01*
X66542000Y-73489500D01*
X66542000Y-74004958D01*
X66563444Y-74112762D01*
X66605507Y-74214312D01*
X66666573Y-74305704D01*
X66744296Y-74383427D01*
X66835688Y-74444493D01*
X66937237Y-74486556D01*
X67045042Y-74508000D01*
X68035828Y-74508000D01*
X67808812Y-74553157D01*
X67654884Y-74756356D01*
X68300000Y-75401472D01*
X68945116Y-74756356D01*
X68791188Y-74553157D01*
X68548000Y-74508000D01*
X69554958Y-74508000D01*
X69662763Y-74486556D01*
X69764312Y-74444493D01*
X69855704Y-74383427D01*
X69933427Y-74305704D01*
X69994493Y-74214312D01*
X70036556Y-74112762D01*
X70058000Y-74004958D01*
X70058000Y-73489500D01*
X69918500Y-73350000D01*
X68900000Y-73350000D01*
X68900000Y-73720000D01*
X67700000Y-73720000D01*
X67700000Y-73350000D01*
X66681500Y-73350000D01*
X66542000Y-73489500D01*
X65250000Y-73489500D01*
X65250000Y-71050000D01*
X66848983Y-71050000D01*
X66835688Y-71055507D01*
X66835688Y-71055507D01*
G37*
X66835688Y-71055507D02*
X66744296Y-71116573D01*
X66666573Y-71194296D01*
X66605507Y-71285688D01*
X66563444Y-71387238D01*
X66542000Y-71495042D01*
X66542000Y-72010500D01*
X66681500Y-72150000D01*
X67700000Y-72150000D01*
X67700000Y-71780000D01*
X68900000Y-71780000D01*
X68900000Y-72150000D01*
X69918500Y-72150000D01*
X70058000Y-72010500D01*
X70058000Y-71495042D01*
X70036556Y-71387238D01*
X69994493Y-71285688D01*
X69933427Y-71194296D01*
X69855704Y-71116573D01*
X69764312Y-71055507D01*
X69751017Y-71050000D01*
X74375001Y-71050000D01*
X74375000Y-117375000D01*
X25625000Y-117375000D01*
X25625000Y-114050000D01*
X29947339Y-114050000D01*
X29947339Y-116450000D01*
X29957958Y-116557819D01*
X29989408Y-116661494D01*
X30040479Y-116757042D01*
X30109210Y-116840790D01*
X30192958Y-116909521D01*
X30288506Y-116960592D01*
X30392181Y-116992042D01*
X30500000Y-117002661D01*
X32900000Y-117002661D01*
X33007819Y-116992042D01*
X33111494Y-116960592D01*
X33207042Y-116909521D01*
X33290790Y-116840790D01*
X33359521Y-116757042D01*
X33410592Y-116661494D01*
X33442042Y-116557819D01*
X33452661Y-116450000D01*
X33452661Y-114050000D01*
X33442042Y-113942181D01*
X33410592Y-113838506D01*
X33359521Y-113742958D01*
X33290790Y-113659210D01*
X33207042Y-113590479D01*
X33111494Y-113539408D01*
X33007819Y-113507958D01*
X32900000Y-113497339D01*
X31885738Y-113497339D01*
X32210456Y-113432749D01*
X32528936Y-113300830D01*
X32815560Y-113109314D01*
X33059314Y-112865560D01*
X33250830Y-112578936D01*
X33382749Y-112260456D01*
X33450000Y-111922360D01*
X33450000Y-111788243D01*
X37850000Y-111788243D01*
X37850000Y-112211757D01*
X37932623Y-112627132D01*
X38094695Y-113018407D01*
X38329986Y-113370545D01*
X38629455Y-113670014D01*
X38981593Y-113905305D01*
X39372868Y-114067377D01*
X39788243Y-114150000D01*
X40211757Y-114150000D01*
X40627132Y-114067377D01*
X41018407Y-113905305D01*
X41370545Y-113670014D01*
X41670014Y-113370545D01*
X41905305Y-113018407D01*
X42067377Y-112627132D01*
X42150000Y-112211757D01*
X42150000Y-111788243D01*
X57850000Y-111788243D01*
X57850000Y-112211757D01*
X57932623Y-112627132D01*
X58094695Y-113018407D01*
X58329986Y-113370545D01*
X58629455Y-113670014D01*
X58981593Y-113905305D01*
X59372868Y-114067377D01*
X59788243Y-114150000D01*
X60211757Y-114150000D01*
X60627132Y-114067377D01*
X61018407Y-113905305D01*
X61370545Y-113670014D01*
X61670014Y-113370545D01*
X61905305Y-113018407D01*
X62067377Y-112627132D01*
X62150000Y-112211757D01*
X62150000Y-111788243D01*
X62067377Y-111372868D01*
X61905305Y-110981593D01*
X61670014Y-110629455D01*
X61370545Y-110329986D01*
X61018407Y-110094695D01*
X60627132Y-109932623D01*
X60211757Y-109850000D01*
X59788243Y-109850000D01*
X59372868Y-109932623D01*
X58981593Y-110094695D01*
X58629455Y-110329986D01*
X58329986Y-110629455D01*
X58094695Y-110981593D01*
X57932623Y-111372868D01*
X57850000Y-111788243D01*
X42150000Y-111788243D01*
X42067377Y-111372868D01*
X41905305Y-110981593D01*
X41670014Y-110629455D01*
X41370545Y-110329986D01*
X41018407Y-110094695D01*
X40627132Y-109932623D01*
X40211757Y-109850000D01*
X39788243Y-109850000D01*
X39372868Y-109932623D01*
X38981593Y-110094695D01*
X38629455Y-110329986D01*
X38329986Y-110629455D01*
X38094695Y-110981593D01*
X37932623Y-111372868D01*
X37850000Y-111788243D01*
X33450000Y-111788243D01*
X33450000Y-111577640D01*
X33382749Y-111239544D01*
X33250830Y-110921064D01*
X33059314Y-110634440D01*
X32815560Y-110390686D01*
X32528936Y-110199170D01*
X32210456Y-110067251D01*
X31872360Y-110000000D01*
X32210456Y-109932749D01*
X32528936Y-109800830D01*
X32815560Y-109609314D01*
X33059314Y-109365560D01*
X33250830Y-109078936D01*
X33382749Y-108760456D01*
X33450000Y-108422360D01*
X33450000Y-108077640D01*
X33382749Y-107739544D01*
X33250830Y-107421064D01*
X33059314Y-107134440D01*
X32815560Y-106890686D01*
X32528936Y-106699170D01*
X32210456Y-106567251D01*
X31872360Y-106500000D01*
X32210456Y-106432749D01*
X32528936Y-106300830D01*
X32815560Y-106109314D01*
X33059314Y-105865560D01*
X33250830Y-105578936D01*
X33382749Y-105260456D01*
X33450000Y-104922360D01*
X33450000Y-104577640D01*
X33382749Y-104239544D01*
X33250830Y-103921064D01*
X33059314Y-103634440D01*
X32815560Y-103390686D01*
X32528936Y-103199170D01*
X32210456Y-103067251D01*
X31872360Y-103000000D01*
X31527640Y-103000000D01*
X31189544Y-103067251D01*
X30871064Y-103199170D01*
X30584440Y-103390686D01*
X30340686Y-103634440D01*
X30149170Y-103921064D01*
X30017251Y-104239544D01*
X29950000Y-104577640D01*
X29950000Y-104922360D01*
X30017251Y-105260456D01*
X30149170Y-105578936D01*
X30340686Y-105865560D01*
X30584440Y-106109314D01*
X30871064Y-106300830D01*
X31189544Y-106432749D01*
X31527640Y-106500000D01*
X31189544Y-106567251D01*
X30871064Y-106699170D01*
X30584440Y-106890686D01*
X30340686Y-107134440D01*
X30149170Y-107421064D01*
X30017251Y-107739544D01*
X29950000Y-108077640D01*
X29950000Y-108422360D01*
X30017251Y-108760456D01*
X30149170Y-109078936D01*
X30340686Y-109365560D01*
X30584440Y-109609314D01*
X30871064Y-109800830D01*
X31189544Y-109932749D01*
X31527640Y-110000000D01*
X31189544Y-110067251D01*
X30871064Y-110199170D01*
X30584440Y-110390686D01*
X30340686Y-110634440D01*
X30149170Y-110921064D01*
X30017251Y-111239544D01*
X29950000Y-111577640D01*
X29950000Y-111922360D01*
X30017251Y-112260456D01*
X30149170Y-112578936D01*
X30340686Y-112865560D01*
X30584440Y-113109314D01*
X30871064Y-113300830D01*
X31189544Y-113432749D01*
X31514262Y-113497339D01*
X30500000Y-113497339D01*
X30392181Y-113507958D01*
X30288506Y-113539408D01*
X30192958Y-113590479D01*
X30109210Y-113659210D01*
X30040479Y-113742958D01*
X29989408Y-113838506D01*
X29957958Y-113942181D01*
X29947339Y-114050000D01*
X25625000Y-114050000D01*
X25625000Y-97989500D01*
X29942000Y-97989500D01*
X29942000Y-98504958D01*
X29963444Y-98612762D01*
X30005507Y-98714312D01*
X30066573Y-98805704D01*
X30144296Y-98883427D01*
X30235688Y-98944493D01*
X30337237Y-98986556D01*
X30445042Y-99008000D01*
X30960500Y-99008000D01*
X31100000Y-98868500D01*
X31100000Y-97850000D01*
X32300000Y-97850000D01*
X32300000Y-98868500D01*
X32439500Y-99008000D01*
X32954958Y-99008000D01*
X33062763Y-98986556D01*
X33164312Y-98944493D01*
X33255704Y-98883427D01*
X33333427Y-98805704D01*
X33394493Y-98714312D01*
X33436556Y-98612762D01*
X33458000Y-98504958D01*
X33458000Y-97989500D01*
X33318500Y-97850000D01*
X32300000Y-97850000D01*
X31100000Y-97850000D01*
X30081500Y-97850000D01*
X29942000Y-97989500D01*
X25625000Y-97989500D01*
X25625000Y-95995042D01*
X29942000Y-95995042D01*
X29942000Y-96510500D01*
X30081500Y-96650000D01*
X31100000Y-96650000D01*
X31100000Y-96280000D01*
X32300000Y-96280000D01*
X32300000Y-96650000D01*
X33318500Y-96650000D01*
X33418500Y-96550000D01*
X66547339Y-96550000D01*
X66547339Y-98950000D01*
X66557958Y-99057819D01*
X66589408Y-99161494D01*
X66640479Y-99257042D01*
X66709210Y-99340790D01*
X66792958Y-99409521D01*
X66888506Y-99460592D01*
X66992181Y-99492042D01*
X67100000Y-99502661D01*
X68114262Y-99502661D01*
X67789544Y-99567251D01*
X67471064Y-99699170D01*
X67184440Y-99890686D01*
X66940686Y-100134440D01*
X66749170Y-100421064D01*
X66617251Y-100739544D01*
X66550000Y-101077640D01*
X66550000Y-101422360D01*
X66617251Y-101760456D01*
X66749170Y-102078936D01*
X66940686Y-102365560D01*
X67184440Y-102609314D01*
X67471064Y-102800830D01*
X67789544Y-102932749D01*
X68127640Y-103000000D01*
X67789544Y-103067251D01*
X67471064Y-103199170D01*
X67184440Y-103390686D01*
X66940686Y-103634440D01*
X66749170Y-103921064D01*
X66617251Y-104239544D01*
X66550000Y-104577640D01*
X66550000Y-104922360D01*
X66617251Y-105260456D01*
X66749170Y-105578936D01*
X66940686Y-105865560D01*
X67184440Y-106109314D01*
X67471064Y-106300830D01*
X67789544Y-106432749D01*
X68127640Y-106500000D01*
X67789544Y-106567251D01*
X67471064Y-106699170D01*
X67184440Y-106890686D01*
X66940686Y-107134440D01*
X66749170Y-107421064D01*
X66617251Y-107739544D01*
X66550000Y-108077640D01*
X66550000Y-108422360D01*
X66617251Y-108760456D01*
X66749170Y-109078936D01*
X66940686Y-109365560D01*
X67184440Y-109609314D01*
X67471064Y-109800830D01*
X67789544Y-109932749D01*
X68127640Y-110000000D01*
X67789544Y-110067251D01*
X67471064Y-110199170D01*
X67184440Y-110390686D01*
X66940686Y-110634440D01*
X66749170Y-110921064D01*
X66617251Y-111239544D01*
X66550000Y-111577640D01*
X66550000Y-111922360D01*
X66617251Y-112260456D01*
X66749170Y-112578936D01*
X66940686Y-112865560D01*
X67184440Y-113109314D01*
X67471064Y-113300830D01*
X67789544Y-113432749D01*
X68127640Y-113500000D01*
X67789544Y-113567251D01*
X67471064Y-113699170D01*
X67184440Y-113890686D01*
X66940686Y-114134440D01*
X66749170Y-114421064D01*
X66617251Y-114739544D01*
X66550000Y-115077640D01*
X66550000Y-115422360D01*
X66617251Y-115760456D01*
X66749170Y-116078936D01*
X66940686Y-116365560D01*
X67184440Y-116609314D01*
X67471064Y-116800830D01*
X67789544Y-116932749D01*
X68127640Y-117000000D01*
X68472360Y-117000000D01*
X68810456Y-116932749D01*
X69128936Y-116800830D01*
X69415560Y-116609314D01*
X69659314Y-116365560D01*
X69850830Y-116078936D01*
X69982749Y-115760456D01*
X70050000Y-115422360D01*
X70050000Y-115077640D01*
X69982749Y-114739544D01*
X69850830Y-114421064D01*
X69659314Y-114134440D01*
X69415560Y-113890686D01*
X69128936Y-113699170D01*
X68810456Y-113567251D01*
X68472360Y-113500000D01*
X68810456Y-113432749D01*
X69128936Y-113300830D01*
X69415560Y-113109314D01*
X69659314Y-112865560D01*
X69850830Y-112578936D01*
X69982749Y-112260456D01*
X70050000Y-111922360D01*
X70050000Y-111577640D01*
X69982749Y-111239544D01*
X69850830Y-110921064D01*
X69659314Y-110634440D01*
X69415560Y-110390686D01*
X69128936Y-110199170D01*
X68810456Y-110067251D01*
X68472360Y-110000000D01*
X68810456Y-109932749D01*
X69128936Y-109800830D01*
X69415560Y-109609314D01*
X69659314Y-109365560D01*
X69850830Y-109078936D01*
X69982749Y-108760456D01*
X70050000Y-108422360D01*
X70050000Y-108077640D01*
X69982749Y-107739544D01*
X69850830Y-107421064D01*
X69659314Y-107134440D01*
X69415560Y-106890686D01*
X69128936Y-106699170D01*
X68810456Y-106567251D01*
X68472360Y-106500000D01*
X68810456Y-106432749D01*
X69128936Y-106300830D01*
X69415560Y-106109314D01*
X69659314Y-105865560D01*
X69850830Y-105578936D01*
X69982749Y-105260456D01*
X70050000Y-104922360D01*
X70050000Y-104577640D01*
X69982749Y-104239544D01*
X69850830Y-103921064D01*
X69659314Y-103634440D01*
X69415560Y-103390686D01*
X69128936Y-103199170D01*
X68810456Y-103067251D01*
X68472360Y-103000000D01*
X68810456Y-102932749D01*
X69128936Y-102800830D01*
X69415560Y-102609314D01*
X69659314Y-102365560D01*
X69850830Y-102078936D01*
X69982749Y-101760456D01*
X70050000Y-101422360D01*
X70050000Y-101077640D01*
X69982749Y-100739544D01*
X69850830Y-100421064D01*
X69659314Y-100134440D01*
X69415560Y-99890686D01*
X69128936Y-99699170D01*
X68810456Y-99567251D01*
X68485738Y-99502661D01*
X69500000Y-99502661D01*
X69607819Y-99492042D01*
X69711494Y-99460592D01*
X69807042Y-99409521D01*
X69890790Y-99340790D01*
X69959521Y-99257042D01*
X70010592Y-99161494D01*
X70042042Y-99057819D01*
X70052661Y-98950000D01*
X70052661Y-96550000D01*
X70042042Y-96442181D01*
X70010592Y-96338506D01*
X69959521Y-96242958D01*
X69890790Y-96159210D01*
X69807042Y-96090479D01*
X69711494Y-96039408D01*
X69607819Y-96007958D01*
X69500000Y-95997339D01*
X67100000Y-95997339D01*
X66992181Y-96007958D01*
X66888506Y-96039408D01*
X66792958Y-96090479D01*
X66709210Y-96159210D01*
X66640479Y-96242958D01*
X66589408Y-96338506D01*
X66557958Y-96442181D01*
X66547339Y-96550000D01*
X33418500Y-96550000D01*
X33458000Y-96510500D01*
X33458000Y-95995042D01*
X33436556Y-95887238D01*
X33394493Y-95785688D01*
X33333427Y-95694296D01*
X33255704Y-95616573D01*
X33164312Y-95555507D01*
X33062763Y-95513444D01*
X32954958Y-95492000D01*
X31964172Y-95492000D01*
X32191188Y-95446843D01*
X32345116Y-95243644D01*
X31700000Y-94598528D01*
X31054884Y-95243644D01*
X31208812Y-95446843D01*
X31452000Y-95492000D01*
X30445042Y-95492000D01*
X30337237Y-95513444D01*
X30235688Y-95555507D01*
X30144296Y-95616573D01*
X30066573Y-95694296D01*
X30005507Y-95785688D01*
X29963444Y-95887238D01*
X29942000Y-95995042D01*
X25625000Y-95995042D01*
X25625000Y-93599287D01*
X29939935Y-93599287D01*
X29944351Y-93945555D01*
X30003157Y-94241188D01*
X30206356Y-94395116D01*
X30851472Y-93750000D01*
X32548528Y-93750000D01*
X33193644Y-94395116D01*
X33396843Y-94241188D01*
X33460065Y-93900713D01*
X33455649Y-93554445D01*
X33396843Y-93258812D01*
X33193644Y-93104884D01*
X32548528Y-93750000D01*
X30851472Y-93750000D01*
X30206356Y-93104884D01*
X30003157Y-93258812D01*
X29939935Y-93599287D01*
X25625000Y-93599287D01*
X25625000Y-91743644D01*
X31054884Y-91743644D01*
X31208812Y-91946843D01*
X31485237Y-91998172D01*
X31208812Y-92053157D01*
X31054884Y-92256356D01*
X31700000Y-92901472D01*
X32345116Y-92256356D01*
X32191188Y-92053157D01*
X31914763Y-92001828D01*
X32191188Y-91946843D01*
X32345116Y-91743644D01*
X67654884Y-91743644D01*
X67808812Y-91946843D01*
X68149287Y-92010065D01*
X68495555Y-92005649D01*
X68791188Y-91946843D01*
X68945116Y-91743644D01*
X68300000Y-91098528D01*
X67654884Y-91743644D01*
X32345116Y-91743644D01*
X31700000Y-91098528D01*
X31054884Y-91743644D01*
X25625000Y-91743644D01*
X25625000Y-90099287D01*
X29939935Y-90099287D01*
X29944351Y-90445555D01*
X30003157Y-90741188D01*
X30206356Y-90895116D01*
X30851472Y-90250000D01*
X32548528Y-90250000D01*
X33193644Y-90895116D01*
X33396843Y-90741188D01*
X33460065Y-90400713D01*
X33456221Y-90099287D01*
X66539935Y-90099287D01*
X66544351Y-90445555D01*
X66603157Y-90741188D01*
X66806356Y-90895116D01*
X67451472Y-90250000D01*
X69148528Y-90250000D01*
X69793644Y-90895116D01*
X69996843Y-90741188D01*
X70060065Y-90400713D01*
X70055649Y-90054445D01*
X69996843Y-89758812D01*
X69793644Y-89604884D01*
X69148528Y-90250000D01*
X67451472Y-90250000D01*
X66806356Y-89604884D01*
X66603157Y-89758812D01*
X66539935Y-90099287D01*
X33456221Y-90099287D01*
X33455649Y-90054445D01*
X33396843Y-89758812D01*
X33193644Y-89604884D01*
X32548528Y-90250000D01*
X30851472Y-90250000D01*
X30206356Y-89604884D01*
X30003157Y-89758812D01*
X29939935Y-90099287D01*
X25625000Y-90099287D01*
X25625000Y-88243644D01*
X31054884Y-88243644D01*
X31208812Y-88446843D01*
X31485237Y-88498172D01*
X31208812Y-88553157D01*
X31054884Y-88756356D01*
X31700000Y-89401472D01*
X32345116Y-88756356D01*
X32191188Y-88553157D01*
X31914763Y-88501828D01*
X32191188Y-88446843D01*
X32345116Y-88243644D01*
X67654884Y-88243644D01*
X67808812Y-88446843D01*
X68085237Y-88498172D01*
X67808812Y-88553157D01*
X67654884Y-88756356D01*
X68300000Y-89401472D01*
X68945116Y-88756356D01*
X68791188Y-88553157D01*
X68514763Y-88501828D01*
X68791188Y-88446843D01*
X68945116Y-88243644D01*
X68300000Y-87598528D01*
X67654884Y-88243644D01*
X32345116Y-88243644D01*
X31700000Y-87598528D01*
X31054884Y-88243644D01*
X25625000Y-88243644D01*
X25625000Y-86599287D01*
X29939935Y-86599287D01*
X29944351Y-86945555D01*
X30003157Y-87241188D01*
X30206356Y-87395116D01*
X30851472Y-86750000D01*
X32548528Y-86750000D01*
X33193644Y-87395116D01*
X33396843Y-87241188D01*
X33460065Y-86900713D01*
X33455649Y-86554445D01*
X33396843Y-86258812D01*
X33193644Y-86104884D01*
X32548528Y-86750000D01*
X30851472Y-86750000D01*
X30206356Y-86104884D01*
X30003157Y-86258812D01*
X29939935Y-86599287D01*
X25625000Y-86599287D01*
X25625000Y-85050000D01*
X31224683Y-85050000D01*
X31208812Y-85053157D01*
X31054884Y-85256356D01*
X31700000Y-85901472D01*
X32345116Y-85256356D01*
X32191188Y-85053157D01*
X32174186Y-85050000D01*
X34750000Y-85050000D01*
X34750000Y-87600000D01*
X34750961Y-87609755D01*
X34753806Y-87619134D01*
X34758427Y-87627779D01*
X34764645Y-87635355D01*
X34772221Y-87641573D01*
X34780866Y-87646194D01*
X34790245Y-87649039D01*
X34800000Y-87650000D01*
X65200000Y-87650000D01*
X65209755Y-87649039D01*
X65219134Y-87646194D01*
X65227779Y-87641573D01*
X65235355Y-87635355D01*
X65241573Y-87627779D01*
X65246194Y-87619134D01*
X65249039Y-87609755D01*
X65250000Y-87600000D01*
X65250000Y-86599287D01*
X66539935Y-86599287D01*
X66544351Y-86945555D01*
X66603157Y-87241188D01*
X66806356Y-87395116D01*
X67451472Y-86750000D01*
X69148528Y-86750000D01*
X69793644Y-87395116D01*
X69996843Y-87241188D01*
X70060065Y-86900713D01*
X70055649Y-86554445D01*
X69996843Y-86258812D01*
X69793644Y-86104884D01*
X69148528Y-86750000D01*
X67451472Y-86750000D01*
X66806356Y-86104884D01*
X66603157Y-86258812D01*
X66539935Y-86599287D01*
X65250000Y-86599287D01*
X65250000Y-84743644D01*
X67654884Y-84743644D01*
X67808812Y-84946843D01*
X68085237Y-84998172D01*
X67808812Y-85053157D01*
X67654884Y-85256356D01*
X68300000Y-85901472D01*
X68945116Y-85256356D01*
X68791188Y-85053157D01*
X68514763Y-85001828D01*
X68791188Y-84946843D01*
X68945116Y-84743644D01*
X68300000Y-84098528D01*
X67654884Y-84743644D01*
X65250000Y-84743644D01*
X65250000Y-83099287D01*
X66539935Y-83099287D01*
X66544351Y-83445555D01*
X66603157Y-83741188D01*
X66806356Y-83895116D01*
X67451472Y-83250000D01*
X69148528Y-83250000D01*
X69793644Y-83895116D01*
X69996843Y-83741188D01*
X70060065Y-83400713D01*
X70055649Y-83054445D01*
X69996843Y-82758812D01*
X69793644Y-82604884D01*
X69148528Y-83250000D01*
X67451472Y-83250000D01*
X66806356Y-82604884D01*
X66603157Y-82758812D01*
X66539935Y-83099287D01*
X65250000Y-83099287D01*
X65250000Y-81243644D01*
X67654884Y-81243644D01*
X67808812Y-81446843D01*
X68085237Y-81498172D01*
X67808812Y-81553157D01*
X67654884Y-81756356D01*
X68300000Y-82401472D01*
X68945116Y-81756356D01*
X68791188Y-81553157D01*
X68514763Y-81501828D01*
X68791188Y-81446843D01*
X68945116Y-81243644D01*
X68300000Y-80598528D01*
X67654884Y-81243644D01*
X65250000Y-81243644D01*
X65250000Y-79599287D01*
X66539935Y-79599287D01*
X66544351Y-79945555D01*
X66603157Y-80241188D01*
X66806356Y-80395116D01*
X67451472Y-79750000D01*
X69148528Y-79750000D01*
X69793644Y-80395116D01*
X69996843Y-80241188D01*
X70060065Y-79900713D01*
X70055649Y-79554445D01*
X69996843Y-79258812D01*
X69793644Y-79104884D01*
X69148528Y-79750000D01*
X67451472Y-79750000D01*
X66806356Y-79104884D01*
X66603157Y-79258812D01*
X66539935Y-79599287D01*
X65250000Y-79599287D01*
X65250000Y-77743644D01*
X67654884Y-77743644D01*
X67808812Y-77946843D01*
X68085237Y-77998172D01*
X67808812Y-78053157D01*
X67654884Y-78256356D01*
X68300000Y-78901472D01*
X68945116Y-78256356D01*
X68791188Y-78053157D01*
X68514763Y-78001828D01*
X68791188Y-77946843D01*
X68945116Y-77743644D01*
X68300000Y-77098528D01*
X67654884Y-77743644D01*
X65250000Y-77743644D01*
X65250000Y-76099287D01*
X66539935Y-76099287D01*
X66544351Y-76445555D01*
X66603157Y-76741188D01*
X66806356Y-76895116D01*
X67451472Y-76250000D01*
X69148528Y-76250000D01*
X69793644Y-76895116D01*
X69996843Y-76741188D01*
X70060065Y-76400713D01*
X70055649Y-76054445D01*
X69996843Y-75758812D01*
X69793644Y-75604884D01*
X69148528Y-76250000D01*
X67451472Y-76250000D01*
X66806356Y-75604884D01*
X66603157Y-75758812D01*
X66539935Y-76099287D01*
X65250000Y-76099287D01*
X65250000Y-73489500D01*
X66542000Y-73489500D01*
X66542000Y-74004958D01*
X66563444Y-74112762D01*
X66605507Y-74214312D01*
X66666573Y-74305704D01*
X66744296Y-74383427D01*
X66835688Y-74444493D01*
X66937237Y-74486556D01*
X67045042Y-74508000D01*
X68035828Y-74508000D01*
X67808812Y-74553157D01*
X67654884Y-74756356D01*
X68300000Y-75401472D01*
X68945116Y-74756356D01*
X68791188Y-74553157D01*
X68548000Y-74508000D01*
X69554958Y-74508000D01*
X69662763Y-74486556D01*
X69764312Y-74444493D01*
X69855704Y-74383427D01*
X69933427Y-74305704D01*
X69994493Y-74214312D01*
X70036556Y-74112762D01*
X70058000Y-74004958D01*
X70058000Y-73489500D01*
X69918500Y-73350000D01*
X68900000Y-73350000D01*
X68900000Y-73720000D01*
X67700000Y-73720000D01*
X67700000Y-73350000D01*
X66681500Y-73350000D01*
X66542000Y-73489500D01*
X65250000Y-73489500D01*
X65250000Y-71050000D01*
X66848983Y-71050000D01*
X66835688Y-71055507D01*
D16*
G04 #@! TO.N,+3V3*
G36*
X42887900Y-46697658D02*
X42887900Y-46697704D01*
X42849800Y-71424604D01*
X42859467Y-71473401D01*
X42886997Y-71514603D01*
X42928199Y-71542133D01*
X42976800Y-71551800D01*
X61417200Y-71551800D01*
X61465801Y-71542133D01*
X61507003Y-71514603D01*
X61534533Y-71473401D01*
X61544200Y-71424800D01*
X61544200Y-52050000D01*
X66452560Y-52050000D01*
X66452560Y-54450000D01*
X66501843Y-54697765D01*
X66642191Y-54907809D01*
X66852235Y-55048157D01*
X67100000Y-55097440D01*
X67494547Y-55097440D01*
X67260556Y-55194362D01*
X66744362Y-55710556D01*
X66465000Y-56384996D01*
X66465000Y-57115004D01*
X66744362Y-57789444D01*
X67260556Y-58305638D01*
X67934996Y-58585000D01*
X68665004Y-58585000D01*
X69339444Y-58305638D01*
X69855638Y-57789444D01*
X70135000Y-57115004D01*
X70135000Y-56384996D01*
X69855638Y-55710556D01*
X69339444Y-55194362D01*
X69105453Y-55097440D01*
X69500000Y-55097440D01*
X69747765Y-55048157D01*
X69957809Y-54907809D01*
X70098157Y-54697765D01*
X70147440Y-54450000D01*
X70147440Y-52050000D01*
X70098157Y-51802235D01*
X69957809Y-51592191D01*
X69747765Y-51451843D01*
X69500000Y-51402560D01*
X67100000Y-51402560D01*
X66852235Y-51451843D01*
X66642191Y-51592191D01*
X66501843Y-51802235D01*
X66452560Y-52050000D01*
X61544200Y-52050000D01*
X61544200Y-40710000D01*
X74290001Y-40710000D01*
X74290001Y-70281800D01*
X64516000Y-70281800D01*
X64467399Y-70291467D01*
X64426197Y-70318997D01*
X64398667Y-70360199D01*
X64389000Y-70408800D01*
X64389000Y-82270600D01*
X25710000Y-82270600D01*
X25710000Y-72299800D01*
X29852560Y-72299800D01*
X29852560Y-74699800D01*
X29901843Y-74947565D01*
X30042191Y-75157609D01*
X30252235Y-75297957D01*
X30500000Y-75347240D01*
X32900000Y-75347240D01*
X33147765Y-75297957D01*
X33357809Y-75157609D01*
X33498157Y-74947565D01*
X33547440Y-74699800D01*
X33547440Y-72299800D01*
X33498157Y-72052035D01*
X33357809Y-71841991D01*
X33147765Y-71701643D01*
X32900000Y-71652360D01*
X32505453Y-71652360D01*
X32739444Y-71555438D01*
X33255638Y-71039244D01*
X33535000Y-70364804D01*
X33535000Y-69634796D01*
X33255638Y-68960356D01*
X32739444Y-68444162D01*
X32270212Y-68249800D01*
X32739444Y-68055438D01*
X33255638Y-67539244D01*
X33535000Y-66864804D01*
X33535000Y-66134796D01*
X33255638Y-65460356D01*
X32739444Y-64944162D01*
X32282895Y-64755053D01*
X32694435Y-64584588D01*
X32817570Y-64296975D01*
X31700000Y-63179405D01*
X30582430Y-64296975D01*
X30705565Y-64584588D01*
X31134284Y-64747938D01*
X30660556Y-64944162D01*
X30144362Y-65460356D01*
X29865000Y-66134796D01*
X29865000Y-66864804D01*
X30144362Y-67539244D01*
X30660556Y-68055438D01*
X31129788Y-68249800D01*
X30660556Y-68444162D01*
X30144362Y-68960356D01*
X29865000Y-69634796D01*
X29865000Y-70364804D01*
X30144362Y-71039244D01*
X30660556Y-71555438D01*
X30894547Y-71652360D01*
X30500000Y-71652360D01*
X30252235Y-71701643D01*
X30042191Y-71841991D01*
X29901843Y-72052035D01*
X29852560Y-72299800D01*
X25710000Y-72299800D01*
X25710000Y-62687534D01*
X29855293Y-62687534D01*
X29876214Y-63417243D01*
X30115212Y-63994235D01*
X30402825Y-64117370D01*
X31520395Y-62999800D01*
X31879605Y-62999800D01*
X32997175Y-64117370D01*
X33284788Y-63994235D01*
X33544707Y-63312066D01*
X33523786Y-62582357D01*
X33284788Y-62005365D01*
X32997175Y-61882230D01*
X31879605Y-62999800D01*
X31520395Y-62999800D01*
X30402825Y-61882230D01*
X30115212Y-62005365D01*
X29855293Y-62687534D01*
X25710000Y-62687534D01*
X25710000Y-61702625D01*
X30582430Y-61702625D01*
X31700000Y-62820195D01*
X32817570Y-61702625D01*
X32694435Y-61415012D01*
X32012266Y-61155093D01*
X31282557Y-61176014D01*
X30705565Y-61415012D01*
X30582430Y-61702625D01*
X25710000Y-61702625D01*
X25710000Y-44555431D01*
X27765000Y-44555431D01*
X27765000Y-45444569D01*
X28105259Y-46266026D01*
X28733974Y-46894741D01*
X29555431Y-47235000D01*
X30444569Y-47235000D01*
X31266026Y-46894741D01*
X31894741Y-46266026D01*
X32235000Y-45444569D01*
X32235000Y-44555431D01*
X31894741Y-43733974D01*
X31266026Y-43105259D01*
X30444569Y-42765000D01*
X29555431Y-42765000D01*
X28733974Y-43105259D01*
X28105259Y-43733974D01*
X27765000Y-44555431D01*
X25710000Y-44555431D01*
X25710000Y-40710000D01*
X42899305Y-40710000D01*
X42887900Y-46697658D01*
X42887900Y-46697658D01*
G37*
X42887900Y-46697658D02*
X42887900Y-46697704D01*
X42849800Y-71424604D01*
X42859467Y-71473401D01*
X42886997Y-71514603D01*
X42928199Y-71542133D01*
X42976800Y-71551800D01*
X61417200Y-71551800D01*
X61465801Y-71542133D01*
X61507003Y-71514603D01*
X61534533Y-71473401D01*
X61544200Y-71424800D01*
X61544200Y-52050000D01*
X66452560Y-52050000D01*
X66452560Y-54450000D01*
X66501843Y-54697765D01*
X66642191Y-54907809D01*
X66852235Y-55048157D01*
X67100000Y-55097440D01*
X67494547Y-55097440D01*
X67260556Y-55194362D01*
X66744362Y-55710556D01*
X66465000Y-56384996D01*
X66465000Y-57115004D01*
X66744362Y-57789444D01*
X67260556Y-58305638D01*
X67934996Y-58585000D01*
X68665004Y-58585000D01*
X69339444Y-58305638D01*
X69855638Y-57789444D01*
X70135000Y-57115004D01*
X70135000Y-56384996D01*
X69855638Y-55710556D01*
X69339444Y-55194362D01*
X69105453Y-55097440D01*
X69500000Y-55097440D01*
X69747765Y-55048157D01*
X69957809Y-54907809D01*
X70098157Y-54697765D01*
X70147440Y-54450000D01*
X70147440Y-52050000D01*
X70098157Y-51802235D01*
X69957809Y-51592191D01*
X69747765Y-51451843D01*
X69500000Y-51402560D01*
X67100000Y-51402560D01*
X66852235Y-51451843D01*
X66642191Y-51592191D01*
X66501843Y-51802235D01*
X66452560Y-52050000D01*
X61544200Y-52050000D01*
X61544200Y-40710000D01*
X74290001Y-40710000D01*
X74290001Y-70281800D01*
X64516000Y-70281800D01*
X64467399Y-70291467D01*
X64426197Y-70318997D01*
X64398667Y-70360199D01*
X64389000Y-70408800D01*
X64389000Y-82270600D01*
X25710000Y-82270600D01*
X25710000Y-72299800D01*
X29852560Y-72299800D01*
X29852560Y-74699800D01*
X29901843Y-74947565D01*
X30042191Y-75157609D01*
X30252235Y-75297957D01*
X30500000Y-75347240D01*
X32900000Y-75347240D01*
X33147765Y-75297957D01*
X33357809Y-75157609D01*
X33498157Y-74947565D01*
X33547440Y-74699800D01*
X33547440Y-72299800D01*
X33498157Y-72052035D01*
X33357809Y-71841991D01*
X33147765Y-71701643D01*
X32900000Y-71652360D01*
X32505453Y-71652360D01*
X32739444Y-71555438D01*
X33255638Y-71039244D01*
X33535000Y-70364804D01*
X33535000Y-69634796D01*
X33255638Y-68960356D01*
X32739444Y-68444162D01*
X32270212Y-68249800D01*
X32739444Y-68055438D01*
X33255638Y-67539244D01*
X33535000Y-66864804D01*
X33535000Y-66134796D01*
X33255638Y-65460356D01*
X32739444Y-64944162D01*
X32282895Y-64755053D01*
X32694435Y-64584588D01*
X32817570Y-64296975D01*
X31700000Y-63179405D01*
X30582430Y-64296975D01*
X30705565Y-64584588D01*
X31134284Y-64747938D01*
X30660556Y-64944162D01*
X30144362Y-65460356D01*
X29865000Y-66134796D01*
X29865000Y-66864804D01*
X30144362Y-67539244D01*
X30660556Y-68055438D01*
X31129788Y-68249800D01*
X30660556Y-68444162D01*
X30144362Y-68960356D01*
X29865000Y-69634796D01*
X29865000Y-70364804D01*
X30144362Y-71039244D01*
X30660556Y-71555438D01*
X30894547Y-71652360D01*
X30500000Y-71652360D01*
X30252235Y-71701643D01*
X30042191Y-71841991D01*
X29901843Y-72052035D01*
X29852560Y-72299800D01*
X25710000Y-72299800D01*
X25710000Y-62687534D01*
X29855293Y-62687534D01*
X29876214Y-63417243D01*
X30115212Y-63994235D01*
X30402825Y-64117370D01*
X31520395Y-62999800D01*
X31879605Y-62999800D01*
X32997175Y-64117370D01*
X33284788Y-63994235D01*
X33544707Y-63312066D01*
X33523786Y-62582357D01*
X33284788Y-62005365D01*
X32997175Y-61882230D01*
X31879605Y-62999800D01*
X31520395Y-62999800D01*
X30402825Y-61882230D01*
X30115212Y-62005365D01*
X29855293Y-62687534D01*
X25710000Y-62687534D01*
X25710000Y-61702625D01*
X30582430Y-61702625D01*
X31700000Y-62820195D01*
X32817570Y-61702625D01*
X32694435Y-61415012D01*
X32012266Y-61155093D01*
X31282557Y-61176014D01*
X30705565Y-61415012D01*
X30582430Y-61702625D01*
X25710000Y-61702625D01*
X25710000Y-44555431D01*
X27765000Y-44555431D01*
X27765000Y-45444569D01*
X28105259Y-46266026D01*
X28733974Y-46894741D01*
X29555431Y-47235000D01*
X30444569Y-47235000D01*
X31266026Y-46894741D01*
X31894741Y-46266026D01*
X32235000Y-45444569D01*
X32235000Y-44555431D01*
X31894741Y-43733974D01*
X31266026Y-43105259D01*
X30444569Y-42765000D01*
X29555431Y-42765000D01*
X28733974Y-43105259D01*
X28105259Y-43733974D01*
X27765000Y-44555431D01*
X25710000Y-44555431D01*
X25710000Y-40710000D01*
X42899305Y-40710000D01*
X42887900Y-46697658D01*
D15*
G36*
X97471064Y-25674170D02*
X97184440Y-25865686D01*
X96940686Y-26109440D01*
X96749170Y-26396064D01*
X96617251Y-26714544D01*
X96550000Y-27052640D01*
X96550000Y-27397360D01*
X96617251Y-27735456D01*
X96749170Y-28053936D01*
X96940686Y-28340560D01*
X97184440Y-28584314D01*
X97471064Y-28775830D01*
X97789544Y-28907749D01*
X98127640Y-28975000D01*
X97789544Y-29042251D01*
X97471064Y-29174170D01*
X97184440Y-29365686D01*
X96940686Y-29609440D01*
X96749170Y-29896064D01*
X96617251Y-30214544D01*
X96550000Y-30552640D01*
X96550000Y-30897360D01*
X96617251Y-31235456D01*
X96749170Y-31553936D01*
X96940686Y-31840560D01*
X97184440Y-32084314D01*
X97471064Y-32275830D01*
X97789544Y-32407749D01*
X98127640Y-32475000D01*
X97789544Y-32542251D01*
X97471064Y-32674170D01*
X97184440Y-32865686D01*
X96940686Y-33109440D01*
X96749170Y-33396064D01*
X96617251Y-33714544D01*
X96550000Y-34052640D01*
X96550000Y-34397360D01*
X96617251Y-34735456D01*
X96749170Y-35053936D01*
X96940686Y-35340560D01*
X97184440Y-35584314D01*
X97471064Y-35775830D01*
X97789544Y-35907749D01*
X98095998Y-35968706D01*
X98095998Y-36106498D01*
X97956500Y-35967000D01*
X97045042Y-35967000D01*
X96937237Y-35988444D01*
X96835688Y-36030507D01*
X96744296Y-36091573D01*
X96666573Y-36169296D01*
X96605507Y-36260688D01*
X96563444Y-36362238D01*
X96542000Y-36470042D01*
X96542000Y-37381500D01*
X96681500Y-37521000D01*
X98096000Y-37521000D01*
X98096000Y-37501000D01*
X98504000Y-37501000D01*
X98504000Y-37521000D01*
X99918500Y-37521000D01*
X100058000Y-37381500D01*
X100058000Y-36470042D01*
X100036556Y-36362238D01*
X99994493Y-36260688D01*
X99933427Y-36169296D01*
X99855704Y-36091573D01*
X99764312Y-36030507D01*
X99662763Y-35988444D01*
X99554958Y-35967000D01*
X98643500Y-35967000D01*
X98504002Y-36106498D01*
X98504002Y-35968706D01*
X98810456Y-35907749D01*
X99128936Y-35775830D01*
X99415560Y-35584314D01*
X99659314Y-35340560D01*
X99850830Y-35053936D01*
X99982749Y-34735456D01*
X100050000Y-34397360D01*
X100050000Y-34052640D01*
X99982749Y-33714544D01*
X99850830Y-33396064D01*
X99659314Y-33109440D01*
X99415560Y-32865686D01*
X99128936Y-32674170D01*
X98810456Y-32542251D01*
X98472360Y-32475000D01*
X98810456Y-32407749D01*
X99128936Y-32275830D01*
X99415560Y-32084314D01*
X99659314Y-31840560D01*
X99850830Y-31553936D01*
X99982749Y-31235456D01*
X100050000Y-30897360D01*
X100050000Y-30552640D01*
X99982749Y-30214544D01*
X99850830Y-29896064D01*
X99659314Y-29609440D01*
X99415560Y-29365686D01*
X99128936Y-29174170D01*
X98810456Y-29042251D01*
X98472360Y-28975000D01*
X98810456Y-28907749D01*
X99128936Y-28775830D01*
X99415560Y-28584314D01*
X99659314Y-28340560D01*
X99850830Y-28053936D01*
X99982749Y-27735456D01*
X100050000Y-27397360D01*
X100050000Y-27052640D01*
X99982749Y-26714544D01*
X99850830Y-26396064D01*
X99659314Y-26109440D01*
X99415560Y-25865686D01*
X99128936Y-25674170D01*
X99010229Y-25625000D01*
X104350001Y-25625000D01*
X104350001Y-39375000D01*
X99830901Y-39375000D01*
X99855704Y-39358427D01*
X99933427Y-39280704D01*
X99994493Y-39189312D01*
X100036556Y-39087762D01*
X100058000Y-38979958D01*
X100058000Y-38068500D01*
X99918500Y-37929000D01*
X98504000Y-37929000D01*
X98504000Y-37949000D01*
X98096000Y-37949000D01*
X98096000Y-37929000D01*
X96681500Y-37929000D01*
X96542000Y-38068500D01*
X96542000Y-38979958D01*
X96563444Y-39087762D01*
X96605507Y-39189312D01*
X96666573Y-39280704D01*
X96744296Y-39358427D01*
X96769099Y-39375000D01*
X75625000Y-39375000D01*
X75625000Y-37318500D01*
X77940860Y-37318500D01*
X77940860Y-37654798D01*
X77962304Y-37762603D01*
X78004367Y-37864152D01*
X78065433Y-37955544D01*
X78143156Y-38033267D01*
X78234548Y-38094333D01*
X78336098Y-38136396D01*
X78443902Y-38157840D01*
X78655740Y-38157840D01*
X78795240Y-38018340D01*
X78795240Y-37179000D01*
X78080360Y-37179000D01*
X77940860Y-37318500D01*
X75625000Y-37318500D01*
X75625000Y-35809733D01*
X76647100Y-35809733D01*
X76647100Y-35996867D01*
X76683608Y-36180405D01*
X76755221Y-36353294D01*
X76859187Y-36508890D01*
X76991510Y-36641213D01*
X77147106Y-36745179D01*
X77319995Y-36816792D01*
X77503533Y-36853300D01*
X77690667Y-36853300D01*
X77874205Y-36816792D01*
X78047094Y-36745179D01*
X78051557Y-36742197D01*
X78080360Y-36771000D01*
X78795240Y-36771000D01*
X78795240Y-35931660D01*
X78655740Y-35792160D01*
X78575070Y-35792160D01*
X78605233Y-35692724D01*
X78608968Y-35654798D01*
X78615000Y-35593558D01*
X78615000Y-35593552D01*
X78618265Y-35560400D01*
X78615000Y-35527248D01*
X78615000Y-34071003D01*
X78679013Y-34006990D01*
X78782979Y-33851394D01*
X78854592Y-33678505D01*
X78891100Y-33494967D01*
X78891100Y-33307833D01*
X78854592Y-33124295D01*
X78795240Y-32981007D01*
X78795240Y-32679000D01*
X78775240Y-32679000D01*
X78775240Y-32271000D01*
X78795240Y-32271000D01*
X78795240Y-31431660D01*
X79203240Y-31431660D01*
X79203240Y-32271000D01*
X79223240Y-32271000D01*
X79223240Y-32679000D01*
X79203240Y-32679000D01*
X79203240Y-33518340D01*
X79342740Y-33657840D01*
X79554578Y-33657840D01*
X79662382Y-33636396D01*
X79763932Y-33594333D01*
X79855324Y-33533267D01*
X79933047Y-33455544D01*
X79994113Y-33364152D01*
X80004551Y-33338953D01*
X80040859Y-33406882D01*
X80109590Y-33490630D01*
X80193338Y-33559361D01*
X80288886Y-33610432D01*
X80325760Y-33621618D01*
X80325761Y-35828382D01*
X80288886Y-35839568D01*
X80193338Y-35890639D01*
X80109590Y-35959370D01*
X80040859Y-36043118D01*
X80004551Y-36111047D01*
X79994113Y-36085848D01*
X79933047Y-35994456D01*
X79855324Y-35916733D01*
X79763932Y-35855667D01*
X79662382Y-35813604D01*
X79554578Y-35792160D01*
X79342740Y-35792160D01*
X79203240Y-35931660D01*
X79203240Y-36771000D01*
X79223240Y-36771000D01*
X79223240Y-37179000D01*
X79203240Y-37179000D01*
X79203240Y-38018340D01*
X79342740Y-38157840D01*
X79554578Y-38157840D01*
X79662382Y-38136396D01*
X79763932Y-38094333D01*
X79855324Y-38033267D01*
X79933047Y-37955544D01*
X79994113Y-37864152D01*
X80004551Y-37838953D01*
X80040859Y-37906882D01*
X80109590Y-37990630D01*
X80193338Y-38059361D01*
X80288886Y-38110432D01*
X80392561Y-38141882D01*
X80500380Y-38152501D01*
X81501140Y-38152501D01*
X81608959Y-38141882D01*
X81712634Y-38110432D01*
X81808182Y-38059361D01*
X81891930Y-37990630D01*
X81960661Y-37906882D01*
X82011732Y-37811334D01*
X82043182Y-37707659D01*
X82053801Y-37599840D01*
X82053801Y-36763243D01*
X88850000Y-36763243D01*
X88850000Y-37186757D01*
X88932623Y-37602132D01*
X89094695Y-37993407D01*
X89329986Y-38345545D01*
X89629455Y-38645014D01*
X89981593Y-38880305D01*
X90372868Y-39042377D01*
X90788243Y-39125000D01*
X91211757Y-39125000D01*
X91627132Y-39042377D01*
X92018407Y-38880305D01*
X92370545Y-38645014D01*
X92670014Y-38345545D01*
X92905305Y-37993407D01*
X93067377Y-37602132D01*
X93150000Y-37186757D01*
X93150000Y-36763243D01*
X93067377Y-36347868D01*
X92905305Y-35956593D01*
X92670014Y-35604455D01*
X92370545Y-35304986D01*
X92018407Y-35069695D01*
X91627132Y-34907623D01*
X91211757Y-34825000D01*
X90788243Y-34825000D01*
X90372868Y-34907623D01*
X89981593Y-35069695D01*
X89629455Y-35304986D01*
X89329986Y-35604455D01*
X89094695Y-35956593D01*
X88932623Y-36347868D01*
X88850000Y-36763243D01*
X82053801Y-36763243D01*
X82053801Y-36350160D01*
X82043182Y-36242341D01*
X82011732Y-36138666D01*
X81960661Y-36043118D01*
X81891930Y-35959370D01*
X81808182Y-35890639D01*
X81712634Y-35839568D01*
X81675760Y-35828382D01*
X81675760Y-35318500D01*
X83440860Y-35318500D01*
X83440860Y-35654798D01*
X83462304Y-35762603D01*
X83504367Y-35864152D01*
X83565433Y-35955544D01*
X83643156Y-36033267D01*
X83734548Y-36094333D01*
X83836098Y-36136396D01*
X83943902Y-36157840D01*
X84155740Y-36157840D01*
X84295240Y-36018340D01*
X84295240Y-35179000D01*
X83580360Y-35179000D01*
X83440860Y-35318500D01*
X81675760Y-35318500D01*
X81675760Y-34295202D01*
X83440860Y-34295202D01*
X83440860Y-34631500D01*
X83580360Y-34771000D01*
X84295240Y-34771000D01*
X84295240Y-33931660D01*
X84703240Y-33931660D01*
X84703240Y-34771000D01*
X84723240Y-34771000D01*
X84723240Y-35179000D01*
X84703240Y-35179000D01*
X84703240Y-36018340D01*
X84842740Y-36157840D01*
X85054578Y-36157840D01*
X85162382Y-36136396D01*
X85263932Y-36094333D01*
X85355324Y-36033267D01*
X85433047Y-35955544D01*
X85494113Y-35864152D01*
X85504551Y-35838953D01*
X85540859Y-35906882D01*
X85609590Y-35990630D01*
X85693338Y-36059361D01*
X85788886Y-36110432D01*
X85892561Y-36141882D01*
X86000380Y-36152501D01*
X87001140Y-36152501D01*
X87108959Y-36141882D01*
X87212634Y-36110432D01*
X87308182Y-36059361D01*
X87391930Y-35990630D01*
X87460661Y-35906882D01*
X87511732Y-35811334D01*
X87543182Y-35707659D01*
X87553801Y-35599840D01*
X87553801Y-34350160D01*
X87543182Y-34242341D01*
X87511732Y-34138666D01*
X87460661Y-34043118D01*
X87391930Y-33959370D01*
X87308182Y-33890639D01*
X87212634Y-33839568D01*
X87108959Y-33808118D01*
X87001140Y-33797499D01*
X86000380Y-33797499D01*
X85892561Y-33808118D01*
X85788886Y-33839568D01*
X85693338Y-33890639D01*
X85609590Y-33959370D01*
X85540859Y-34043118D01*
X85504551Y-34111047D01*
X85494113Y-34085848D01*
X85433047Y-33994456D01*
X85355324Y-33916733D01*
X85263932Y-33855667D01*
X85162382Y-33813604D01*
X85054578Y-33792160D01*
X84842740Y-33792160D01*
X84703240Y-33931660D01*
X84295240Y-33931660D01*
X84155740Y-33792160D01*
X83943902Y-33792160D01*
X83836098Y-33813604D01*
X83734548Y-33855667D01*
X83643156Y-33916733D01*
X83565433Y-33994456D01*
X83504367Y-34085848D01*
X83462304Y-34187397D01*
X83440860Y-34295202D01*
X81675760Y-34295202D01*
X81675760Y-33621618D01*
X81712634Y-33610432D01*
X81808182Y-33559361D01*
X81891930Y-33490630D01*
X81960661Y-33406882D01*
X82011732Y-33311334D01*
X82043182Y-33207659D01*
X82053801Y-33099840D01*
X82053801Y-31850160D01*
X82043182Y-31742341D01*
X82011732Y-31638666D01*
X81960661Y-31543118D01*
X81891930Y-31459370D01*
X81808182Y-31390639D01*
X81712634Y-31339568D01*
X81608959Y-31308118D01*
X81501140Y-31297499D01*
X80500380Y-31297499D01*
X80392561Y-31308118D01*
X80288886Y-31339568D01*
X80193338Y-31390639D01*
X80109590Y-31459370D01*
X80040859Y-31543118D01*
X80004551Y-31611047D01*
X79994113Y-31585848D01*
X79933047Y-31494456D01*
X79855324Y-31416733D01*
X79763932Y-31355667D01*
X79662382Y-31313604D01*
X79554578Y-31292160D01*
X79342740Y-31292160D01*
X79203240Y-31431660D01*
X78795240Y-31431660D01*
X78655740Y-31292160D01*
X78443902Y-31292160D01*
X78336098Y-31313604D01*
X78234548Y-31355667D01*
X78143156Y-31416733D01*
X78065433Y-31494456D01*
X78004367Y-31585848D01*
X77962304Y-31687397D01*
X77940860Y-31795202D01*
X77940860Y-32131500D01*
X78080358Y-32270998D01*
X77940860Y-32270998D01*
X77940860Y-32451400D01*
X77847533Y-32451400D01*
X77663995Y-32487908D01*
X77491106Y-32559521D01*
X77335510Y-32663487D01*
X77203187Y-32795810D01*
X77099221Y-32951406D01*
X77027608Y-33124295D01*
X76991100Y-33307833D01*
X76991100Y-33494967D01*
X77027608Y-33678505D01*
X77099221Y-33851394D01*
X77203187Y-34006990D01*
X77265000Y-34068803D01*
X77265001Y-35012587D01*
X77147106Y-35061421D01*
X76991510Y-35165387D01*
X76859187Y-35297710D01*
X76755221Y-35453306D01*
X76683608Y-35626195D01*
X76647100Y-35809733D01*
X75625000Y-35809733D01*
X75625000Y-30318500D01*
X83440860Y-30318500D01*
X83440860Y-30654798D01*
X83462304Y-30762603D01*
X83504367Y-30864152D01*
X83565433Y-30955544D01*
X83643156Y-31033267D01*
X83734548Y-31094333D01*
X83836098Y-31136396D01*
X83943902Y-31157840D01*
X84155740Y-31157840D01*
X84295240Y-31018340D01*
X84295240Y-30179000D01*
X83580360Y-30179000D01*
X83440860Y-30318500D01*
X75625000Y-30318500D01*
X75625000Y-29295202D01*
X83440860Y-29295202D01*
X83440860Y-29631500D01*
X83580360Y-29771000D01*
X84295240Y-29771000D01*
X84295240Y-28931660D01*
X84703240Y-28931660D01*
X84703240Y-29771000D01*
X84723240Y-29771000D01*
X84723240Y-30179000D01*
X84703240Y-30179000D01*
X84703240Y-31018340D01*
X84842740Y-31157840D01*
X85054578Y-31157840D01*
X85162382Y-31136396D01*
X85263932Y-31094333D01*
X85355324Y-31033267D01*
X85433047Y-30955544D01*
X85494113Y-30864152D01*
X85504551Y-30838953D01*
X85540859Y-30906882D01*
X85609590Y-30990630D01*
X85693338Y-31059361D01*
X85788886Y-31110432D01*
X85892561Y-31141882D01*
X86000380Y-31152501D01*
X87001140Y-31152501D01*
X87108959Y-31141882D01*
X87212634Y-31110432D01*
X87308182Y-31059361D01*
X87391930Y-30990630D01*
X87460661Y-30906882D01*
X87511732Y-30811334D01*
X87543182Y-30707659D01*
X87553801Y-30599840D01*
X87553801Y-29350160D01*
X87543182Y-29242341D01*
X87511732Y-29138666D01*
X87460661Y-29043118D01*
X87391930Y-28959370D01*
X87308182Y-28890639D01*
X87212634Y-28839568D01*
X87108959Y-28808118D01*
X87001140Y-28797499D01*
X86000380Y-28797499D01*
X85892561Y-28808118D01*
X85788886Y-28839568D01*
X85693338Y-28890639D01*
X85609590Y-28959370D01*
X85540859Y-29043118D01*
X85504551Y-29111047D01*
X85494113Y-29085848D01*
X85433047Y-28994456D01*
X85355324Y-28916733D01*
X85263932Y-28855667D01*
X85162382Y-28813604D01*
X85054578Y-28792160D01*
X84842740Y-28792160D01*
X84703240Y-28931660D01*
X84295240Y-28931660D01*
X84155740Y-28792160D01*
X83943902Y-28792160D01*
X83836098Y-28813604D01*
X83734548Y-28855667D01*
X83643156Y-28916733D01*
X83565433Y-28994456D01*
X83504367Y-29085848D01*
X83462304Y-29187397D01*
X83440860Y-29295202D01*
X75625000Y-29295202D01*
X75625000Y-27350160D01*
X77946199Y-27350160D01*
X77946199Y-28599840D01*
X77956818Y-28707659D01*
X77988268Y-28811334D01*
X78039339Y-28906882D01*
X78108070Y-28990630D01*
X78191818Y-29059361D01*
X78287366Y-29110432D01*
X78391041Y-29141882D01*
X78498860Y-29152501D01*
X79499620Y-29152501D01*
X79607439Y-29141882D01*
X79711114Y-29110432D01*
X79806662Y-29059361D01*
X79890410Y-28990630D01*
X79959141Y-28906882D01*
X79995449Y-28838953D01*
X80005887Y-28864152D01*
X80066953Y-28955544D01*
X80144676Y-29033267D01*
X80236068Y-29094333D01*
X80337618Y-29136396D01*
X80445422Y-29157840D01*
X80657260Y-29157840D01*
X80796760Y-29018340D01*
X80796760Y-28179000D01*
X81204760Y-28179000D01*
X81204760Y-29018340D01*
X81344260Y-29157840D01*
X81556098Y-29157840D01*
X81663902Y-29136396D01*
X81765452Y-29094333D01*
X81856844Y-29033267D01*
X81934567Y-28955544D01*
X81995633Y-28864152D01*
X82037696Y-28762603D01*
X82059140Y-28654798D01*
X82059140Y-28318500D01*
X81919640Y-28179000D01*
X81204760Y-28179000D01*
X80796760Y-28179000D01*
X80776760Y-28179000D01*
X80776760Y-27771000D01*
X80796760Y-27771000D01*
X80796760Y-26931660D01*
X81204760Y-26931660D01*
X81204760Y-27771000D01*
X81919640Y-27771000D01*
X81927397Y-27763243D01*
X88850000Y-27763243D01*
X88850000Y-28186757D01*
X88932623Y-28602132D01*
X89094695Y-28993407D01*
X89329986Y-29345545D01*
X89629455Y-29645014D01*
X89981593Y-29880305D01*
X90372868Y-30042377D01*
X90788243Y-30125000D01*
X91211757Y-30125000D01*
X91627132Y-30042377D01*
X92018407Y-29880305D01*
X92370545Y-29645014D01*
X92670014Y-29345545D01*
X92905305Y-28993407D01*
X93067377Y-28602132D01*
X93150000Y-28186757D01*
X93150000Y-27763243D01*
X93067377Y-27347868D01*
X92905305Y-26956593D01*
X92670014Y-26604455D01*
X92370545Y-26304986D01*
X92018407Y-26069695D01*
X91627132Y-25907623D01*
X91211757Y-25825000D01*
X90788243Y-25825000D01*
X90372868Y-25907623D01*
X89981593Y-26069695D01*
X89629455Y-26304986D01*
X89329986Y-26604455D01*
X89094695Y-26956593D01*
X88932623Y-27347868D01*
X88850000Y-27763243D01*
X81927397Y-27763243D01*
X82059140Y-27631500D01*
X82059140Y-27295202D01*
X82037696Y-27187397D01*
X81995633Y-27085848D01*
X81934567Y-26994456D01*
X81856844Y-26916733D01*
X81765452Y-26855667D01*
X81663902Y-26813604D01*
X81556098Y-26792160D01*
X81344260Y-26792160D01*
X81204760Y-26931660D01*
X80796760Y-26931660D01*
X80657260Y-26792160D01*
X80445422Y-26792160D01*
X80337618Y-26813604D01*
X80236068Y-26855667D01*
X80144676Y-26916733D01*
X80066953Y-26994456D01*
X80005887Y-27085848D01*
X79995449Y-27111047D01*
X79959141Y-27043118D01*
X79890410Y-26959370D01*
X79806662Y-26890639D01*
X79711114Y-26839568D01*
X79607439Y-26808118D01*
X79499620Y-26797499D01*
X78498860Y-26797499D01*
X78391041Y-26808118D01*
X78287366Y-26839568D01*
X78191818Y-26890639D01*
X78108070Y-26959370D01*
X78039339Y-27043118D01*
X77988268Y-27138666D01*
X77956818Y-27242341D01*
X77946199Y-27350160D01*
X75625000Y-27350160D01*
X75625000Y-25625000D01*
X97589771Y-25625000D01*
X97471064Y-25674170D01*
X97471064Y-25674170D01*
G37*
X97471064Y-25674170D02*
X97184440Y-25865686D01*
X96940686Y-26109440D01*
X96749170Y-26396064D01*
X96617251Y-26714544D01*
X96550000Y-27052640D01*
X96550000Y-27397360D01*
X96617251Y-27735456D01*
X96749170Y-28053936D01*
X96940686Y-28340560D01*
X97184440Y-28584314D01*
X97471064Y-28775830D01*
X97789544Y-28907749D01*
X98127640Y-28975000D01*
X97789544Y-29042251D01*
X97471064Y-29174170D01*
X97184440Y-29365686D01*
X96940686Y-29609440D01*
X96749170Y-29896064D01*
X96617251Y-30214544D01*
X96550000Y-30552640D01*
X96550000Y-30897360D01*
X96617251Y-31235456D01*
X96749170Y-31553936D01*
X96940686Y-31840560D01*
X97184440Y-32084314D01*
X97471064Y-32275830D01*
X97789544Y-32407749D01*
X98127640Y-32475000D01*
X97789544Y-32542251D01*
X97471064Y-32674170D01*
X97184440Y-32865686D01*
X96940686Y-33109440D01*
X96749170Y-33396064D01*
X96617251Y-33714544D01*
X96550000Y-34052640D01*
X96550000Y-34397360D01*
X96617251Y-34735456D01*
X96749170Y-35053936D01*
X96940686Y-35340560D01*
X97184440Y-35584314D01*
X97471064Y-35775830D01*
X97789544Y-35907749D01*
X98095998Y-35968706D01*
X98095998Y-36106498D01*
X97956500Y-35967000D01*
X97045042Y-35967000D01*
X96937237Y-35988444D01*
X96835688Y-36030507D01*
X96744296Y-36091573D01*
X96666573Y-36169296D01*
X96605507Y-36260688D01*
X96563444Y-36362238D01*
X96542000Y-36470042D01*
X96542000Y-37381500D01*
X96681500Y-37521000D01*
X98096000Y-37521000D01*
X98096000Y-37501000D01*
X98504000Y-37501000D01*
X98504000Y-37521000D01*
X99918500Y-37521000D01*
X100058000Y-37381500D01*
X100058000Y-36470042D01*
X100036556Y-36362238D01*
X99994493Y-36260688D01*
X99933427Y-36169296D01*
X99855704Y-36091573D01*
X99764312Y-36030507D01*
X99662763Y-35988444D01*
X99554958Y-35967000D01*
X98643500Y-35967000D01*
X98504002Y-36106498D01*
X98504002Y-35968706D01*
X98810456Y-35907749D01*
X99128936Y-35775830D01*
X99415560Y-35584314D01*
X99659314Y-35340560D01*
X99850830Y-35053936D01*
X99982749Y-34735456D01*
X100050000Y-34397360D01*
X100050000Y-34052640D01*
X99982749Y-33714544D01*
X99850830Y-33396064D01*
X99659314Y-33109440D01*
X99415560Y-32865686D01*
X99128936Y-32674170D01*
X98810456Y-32542251D01*
X98472360Y-32475000D01*
X98810456Y-32407749D01*
X99128936Y-32275830D01*
X99415560Y-32084314D01*
X99659314Y-31840560D01*
X99850830Y-31553936D01*
X99982749Y-31235456D01*
X100050000Y-30897360D01*
X100050000Y-30552640D01*
X99982749Y-30214544D01*
X99850830Y-29896064D01*
X99659314Y-29609440D01*
X99415560Y-29365686D01*
X99128936Y-29174170D01*
X98810456Y-29042251D01*
X98472360Y-28975000D01*
X98810456Y-28907749D01*
X99128936Y-28775830D01*
X99415560Y-28584314D01*
X99659314Y-28340560D01*
X99850830Y-28053936D01*
X99982749Y-27735456D01*
X100050000Y-27397360D01*
X100050000Y-27052640D01*
X99982749Y-26714544D01*
X99850830Y-26396064D01*
X99659314Y-26109440D01*
X99415560Y-25865686D01*
X99128936Y-25674170D01*
X99010229Y-25625000D01*
X104350001Y-25625000D01*
X104350001Y-39375000D01*
X99830901Y-39375000D01*
X99855704Y-39358427D01*
X99933427Y-39280704D01*
X99994493Y-39189312D01*
X100036556Y-39087762D01*
X100058000Y-38979958D01*
X100058000Y-38068500D01*
X99918500Y-37929000D01*
X98504000Y-37929000D01*
X98504000Y-37949000D01*
X98096000Y-37949000D01*
X98096000Y-37929000D01*
X96681500Y-37929000D01*
X96542000Y-38068500D01*
X96542000Y-38979958D01*
X96563444Y-39087762D01*
X96605507Y-39189312D01*
X96666573Y-39280704D01*
X96744296Y-39358427D01*
X96769099Y-39375000D01*
X75625000Y-39375000D01*
X75625000Y-37318500D01*
X77940860Y-37318500D01*
X77940860Y-37654798D01*
X77962304Y-37762603D01*
X78004367Y-37864152D01*
X78065433Y-37955544D01*
X78143156Y-38033267D01*
X78234548Y-38094333D01*
X78336098Y-38136396D01*
X78443902Y-38157840D01*
X78655740Y-38157840D01*
X78795240Y-38018340D01*
X78795240Y-37179000D01*
X78080360Y-37179000D01*
X77940860Y-37318500D01*
X75625000Y-37318500D01*
X75625000Y-35809733D01*
X76647100Y-35809733D01*
X76647100Y-35996867D01*
X76683608Y-36180405D01*
X76755221Y-36353294D01*
X76859187Y-36508890D01*
X76991510Y-36641213D01*
X77147106Y-36745179D01*
X77319995Y-36816792D01*
X77503533Y-36853300D01*
X77690667Y-36853300D01*
X77874205Y-36816792D01*
X78047094Y-36745179D01*
X78051557Y-36742197D01*
X78080360Y-36771000D01*
X78795240Y-36771000D01*
X78795240Y-35931660D01*
X78655740Y-35792160D01*
X78575070Y-35792160D01*
X78605233Y-35692724D01*
X78608968Y-35654798D01*
X78615000Y-35593558D01*
X78615000Y-35593552D01*
X78618265Y-35560400D01*
X78615000Y-35527248D01*
X78615000Y-34071003D01*
X78679013Y-34006990D01*
X78782979Y-33851394D01*
X78854592Y-33678505D01*
X78891100Y-33494967D01*
X78891100Y-33307833D01*
X78854592Y-33124295D01*
X78795240Y-32981007D01*
X78795240Y-32679000D01*
X78775240Y-32679000D01*
X78775240Y-32271000D01*
X78795240Y-32271000D01*
X78795240Y-31431660D01*
X79203240Y-31431660D01*
X79203240Y-32271000D01*
X79223240Y-32271000D01*
X79223240Y-32679000D01*
X79203240Y-32679000D01*
X79203240Y-33518340D01*
X79342740Y-33657840D01*
X79554578Y-33657840D01*
X79662382Y-33636396D01*
X79763932Y-33594333D01*
X79855324Y-33533267D01*
X79933047Y-33455544D01*
X79994113Y-33364152D01*
X80004551Y-33338953D01*
X80040859Y-33406882D01*
X80109590Y-33490630D01*
X80193338Y-33559361D01*
X80288886Y-33610432D01*
X80325760Y-33621618D01*
X80325761Y-35828382D01*
X80288886Y-35839568D01*
X80193338Y-35890639D01*
X80109590Y-35959370D01*
X80040859Y-36043118D01*
X80004551Y-36111047D01*
X79994113Y-36085848D01*
X79933047Y-35994456D01*
X79855324Y-35916733D01*
X79763932Y-35855667D01*
X79662382Y-35813604D01*
X79554578Y-35792160D01*
X79342740Y-35792160D01*
X79203240Y-35931660D01*
X79203240Y-36771000D01*
X79223240Y-36771000D01*
X79223240Y-37179000D01*
X79203240Y-37179000D01*
X79203240Y-38018340D01*
X79342740Y-38157840D01*
X79554578Y-38157840D01*
X79662382Y-38136396D01*
X79763932Y-38094333D01*
X79855324Y-38033267D01*
X79933047Y-37955544D01*
X79994113Y-37864152D01*
X80004551Y-37838953D01*
X80040859Y-37906882D01*
X80109590Y-37990630D01*
X80193338Y-38059361D01*
X80288886Y-38110432D01*
X80392561Y-38141882D01*
X80500380Y-38152501D01*
X81501140Y-38152501D01*
X81608959Y-38141882D01*
X81712634Y-38110432D01*
X81808182Y-38059361D01*
X81891930Y-37990630D01*
X81960661Y-37906882D01*
X82011732Y-37811334D01*
X82043182Y-37707659D01*
X82053801Y-37599840D01*
X82053801Y-36763243D01*
X88850000Y-36763243D01*
X88850000Y-37186757D01*
X88932623Y-37602132D01*
X89094695Y-37993407D01*
X89329986Y-38345545D01*
X89629455Y-38645014D01*
X89981593Y-38880305D01*
X90372868Y-39042377D01*
X90788243Y-39125000D01*
X91211757Y-39125000D01*
X91627132Y-39042377D01*
X92018407Y-38880305D01*
X92370545Y-38645014D01*
X92670014Y-38345545D01*
X92905305Y-37993407D01*
X93067377Y-37602132D01*
X93150000Y-37186757D01*
X93150000Y-36763243D01*
X93067377Y-36347868D01*
X92905305Y-35956593D01*
X92670014Y-35604455D01*
X92370545Y-35304986D01*
X92018407Y-35069695D01*
X91627132Y-34907623D01*
X91211757Y-34825000D01*
X90788243Y-34825000D01*
X90372868Y-34907623D01*
X89981593Y-35069695D01*
X89629455Y-35304986D01*
X89329986Y-35604455D01*
X89094695Y-35956593D01*
X88932623Y-36347868D01*
X88850000Y-36763243D01*
X82053801Y-36763243D01*
X82053801Y-36350160D01*
X82043182Y-36242341D01*
X82011732Y-36138666D01*
X81960661Y-36043118D01*
X81891930Y-35959370D01*
X81808182Y-35890639D01*
X81712634Y-35839568D01*
X81675760Y-35828382D01*
X81675760Y-35318500D01*
X83440860Y-35318500D01*
X83440860Y-35654798D01*
X83462304Y-35762603D01*
X83504367Y-35864152D01*
X83565433Y-35955544D01*
X83643156Y-36033267D01*
X83734548Y-36094333D01*
X83836098Y-36136396D01*
X83943902Y-36157840D01*
X84155740Y-36157840D01*
X84295240Y-36018340D01*
X84295240Y-35179000D01*
X83580360Y-35179000D01*
X83440860Y-35318500D01*
X81675760Y-35318500D01*
X81675760Y-34295202D01*
X83440860Y-34295202D01*
X83440860Y-34631500D01*
X83580360Y-34771000D01*
X84295240Y-34771000D01*
X84295240Y-33931660D01*
X84703240Y-33931660D01*
X84703240Y-34771000D01*
X84723240Y-34771000D01*
X84723240Y-35179000D01*
X84703240Y-35179000D01*
X84703240Y-36018340D01*
X84842740Y-36157840D01*
X85054578Y-36157840D01*
X85162382Y-36136396D01*
X85263932Y-36094333D01*
X85355324Y-36033267D01*
X85433047Y-35955544D01*
X85494113Y-35864152D01*
X85504551Y-35838953D01*
X85540859Y-35906882D01*
X85609590Y-35990630D01*
X85693338Y-36059361D01*
X85788886Y-36110432D01*
X85892561Y-36141882D01*
X86000380Y-36152501D01*
X87001140Y-36152501D01*
X87108959Y-36141882D01*
X87212634Y-36110432D01*
X87308182Y-36059361D01*
X87391930Y-35990630D01*
X87460661Y-35906882D01*
X87511732Y-35811334D01*
X87543182Y-35707659D01*
X87553801Y-35599840D01*
X87553801Y-34350160D01*
X87543182Y-34242341D01*
X87511732Y-34138666D01*
X87460661Y-34043118D01*
X87391930Y-33959370D01*
X87308182Y-33890639D01*
X87212634Y-33839568D01*
X87108959Y-33808118D01*
X87001140Y-33797499D01*
X86000380Y-33797499D01*
X85892561Y-33808118D01*
X85788886Y-33839568D01*
X85693338Y-33890639D01*
X85609590Y-33959370D01*
X85540859Y-34043118D01*
X85504551Y-34111047D01*
X85494113Y-34085848D01*
X85433047Y-33994456D01*
X85355324Y-33916733D01*
X85263932Y-33855667D01*
X85162382Y-33813604D01*
X85054578Y-33792160D01*
X84842740Y-33792160D01*
X84703240Y-33931660D01*
X84295240Y-33931660D01*
X84155740Y-33792160D01*
X83943902Y-33792160D01*
X83836098Y-33813604D01*
X83734548Y-33855667D01*
X83643156Y-33916733D01*
X83565433Y-33994456D01*
X83504367Y-34085848D01*
X83462304Y-34187397D01*
X83440860Y-34295202D01*
X81675760Y-34295202D01*
X81675760Y-33621618D01*
X81712634Y-33610432D01*
X81808182Y-33559361D01*
X81891930Y-33490630D01*
X81960661Y-33406882D01*
X82011732Y-33311334D01*
X82043182Y-33207659D01*
X82053801Y-33099840D01*
X82053801Y-31850160D01*
X82043182Y-31742341D01*
X82011732Y-31638666D01*
X81960661Y-31543118D01*
X81891930Y-31459370D01*
X81808182Y-31390639D01*
X81712634Y-31339568D01*
X81608959Y-31308118D01*
X81501140Y-31297499D01*
X80500380Y-31297499D01*
X80392561Y-31308118D01*
X80288886Y-31339568D01*
X80193338Y-31390639D01*
X80109590Y-31459370D01*
X80040859Y-31543118D01*
X80004551Y-31611047D01*
X79994113Y-31585848D01*
X79933047Y-31494456D01*
X79855324Y-31416733D01*
X79763932Y-31355667D01*
X79662382Y-31313604D01*
X79554578Y-31292160D01*
X79342740Y-31292160D01*
X79203240Y-31431660D01*
X78795240Y-31431660D01*
X78655740Y-31292160D01*
X78443902Y-31292160D01*
X78336098Y-31313604D01*
X78234548Y-31355667D01*
X78143156Y-31416733D01*
X78065433Y-31494456D01*
X78004367Y-31585848D01*
X77962304Y-31687397D01*
X77940860Y-31795202D01*
X77940860Y-32131500D01*
X78080358Y-32270998D01*
X77940860Y-32270998D01*
X77940860Y-32451400D01*
X77847533Y-32451400D01*
X77663995Y-32487908D01*
X77491106Y-32559521D01*
X77335510Y-32663487D01*
X77203187Y-32795810D01*
X77099221Y-32951406D01*
X77027608Y-33124295D01*
X76991100Y-33307833D01*
X76991100Y-33494967D01*
X77027608Y-33678505D01*
X77099221Y-33851394D01*
X77203187Y-34006990D01*
X77265000Y-34068803D01*
X77265001Y-35012587D01*
X77147106Y-35061421D01*
X76991510Y-35165387D01*
X76859187Y-35297710D01*
X76755221Y-35453306D01*
X76683608Y-35626195D01*
X76647100Y-35809733D01*
X75625000Y-35809733D01*
X75625000Y-30318500D01*
X83440860Y-30318500D01*
X83440860Y-30654798D01*
X83462304Y-30762603D01*
X83504367Y-30864152D01*
X83565433Y-30955544D01*
X83643156Y-31033267D01*
X83734548Y-31094333D01*
X83836098Y-31136396D01*
X83943902Y-31157840D01*
X84155740Y-31157840D01*
X84295240Y-31018340D01*
X84295240Y-30179000D01*
X83580360Y-30179000D01*
X83440860Y-30318500D01*
X75625000Y-30318500D01*
X75625000Y-29295202D01*
X83440860Y-29295202D01*
X83440860Y-29631500D01*
X83580360Y-29771000D01*
X84295240Y-29771000D01*
X84295240Y-28931660D01*
X84703240Y-28931660D01*
X84703240Y-29771000D01*
X84723240Y-29771000D01*
X84723240Y-30179000D01*
X84703240Y-30179000D01*
X84703240Y-31018340D01*
X84842740Y-31157840D01*
X85054578Y-31157840D01*
X85162382Y-31136396D01*
X85263932Y-31094333D01*
X85355324Y-31033267D01*
X85433047Y-30955544D01*
X85494113Y-30864152D01*
X85504551Y-30838953D01*
X85540859Y-30906882D01*
X85609590Y-30990630D01*
X85693338Y-31059361D01*
X85788886Y-31110432D01*
X85892561Y-31141882D01*
X86000380Y-31152501D01*
X87001140Y-31152501D01*
X87108959Y-31141882D01*
X87212634Y-31110432D01*
X87308182Y-31059361D01*
X87391930Y-30990630D01*
X87460661Y-30906882D01*
X87511732Y-30811334D01*
X87543182Y-30707659D01*
X87553801Y-30599840D01*
X87553801Y-29350160D01*
X87543182Y-29242341D01*
X87511732Y-29138666D01*
X87460661Y-29043118D01*
X87391930Y-28959370D01*
X87308182Y-28890639D01*
X87212634Y-28839568D01*
X87108959Y-28808118D01*
X87001140Y-28797499D01*
X86000380Y-28797499D01*
X85892561Y-28808118D01*
X85788886Y-28839568D01*
X85693338Y-28890639D01*
X85609590Y-28959370D01*
X85540859Y-29043118D01*
X85504551Y-29111047D01*
X85494113Y-29085848D01*
X85433047Y-28994456D01*
X85355324Y-28916733D01*
X85263932Y-28855667D01*
X85162382Y-28813604D01*
X85054578Y-28792160D01*
X84842740Y-28792160D01*
X84703240Y-28931660D01*
X84295240Y-28931660D01*
X84155740Y-28792160D01*
X83943902Y-28792160D01*
X83836098Y-28813604D01*
X83734548Y-28855667D01*
X83643156Y-28916733D01*
X83565433Y-28994456D01*
X83504367Y-29085848D01*
X83462304Y-29187397D01*
X83440860Y-29295202D01*
X75625000Y-29295202D01*
X75625000Y-27350160D01*
X77946199Y-27350160D01*
X77946199Y-28599840D01*
X77956818Y-28707659D01*
X77988268Y-28811334D01*
X78039339Y-28906882D01*
X78108070Y-28990630D01*
X78191818Y-29059361D01*
X78287366Y-29110432D01*
X78391041Y-29141882D01*
X78498860Y-29152501D01*
X79499620Y-29152501D01*
X79607439Y-29141882D01*
X79711114Y-29110432D01*
X79806662Y-29059361D01*
X79890410Y-28990630D01*
X79959141Y-28906882D01*
X79995449Y-28838953D01*
X80005887Y-28864152D01*
X80066953Y-28955544D01*
X80144676Y-29033267D01*
X80236068Y-29094333D01*
X80337618Y-29136396D01*
X80445422Y-29157840D01*
X80657260Y-29157840D01*
X80796760Y-29018340D01*
X80796760Y-28179000D01*
X81204760Y-28179000D01*
X81204760Y-29018340D01*
X81344260Y-29157840D01*
X81556098Y-29157840D01*
X81663902Y-29136396D01*
X81765452Y-29094333D01*
X81856844Y-29033267D01*
X81934567Y-28955544D01*
X81995633Y-28864152D01*
X82037696Y-28762603D01*
X82059140Y-28654798D01*
X82059140Y-28318500D01*
X81919640Y-28179000D01*
X81204760Y-28179000D01*
X80796760Y-28179000D01*
X80776760Y-28179000D01*
X80776760Y-27771000D01*
X80796760Y-27771000D01*
X80796760Y-26931660D01*
X81204760Y-26931660D01*
X81204760Y-27771000D01*
X81919640Y-27771000D01*
X81927397Y-27763243D01*
X88850000Y-27763243D01*
X88850000Y-28186757D01*
X88932623Y-28602132D01*
X89094695Y-28993407D01*
X89329986Y-29345545D01*
X89629455Y-29645014D01*
X89981593Y-29880305D01*
X90372868Y-30042377D01*
X90788243Y-30125000D01*
X91211757Y-30125000D01*
X91627132Y-30042377D01*
X92018407Y-29880305D01*
X92370545Y-29645014D01*
X92670014Y-29345545D01*
X92905305Y-28993407D01*
X93067377Y-28602132D01*
X93150000Y-28186757D01*
X93150000Y-27763243D01*
X93067377Y-27347868D01*
X92905305Y-26956593D01*
X92670014Y-26604455D01*
X92370545Y-26304986D01*
X92018407Y-26069695D01*
X91627132Y-25907623D01*
X91211757Y-25825000D01*
X90788243Y-25825000D01*
X90372868Y-25907623D01*
X89981593Y-26069695D01*
X89629455Y-26304986D01*
X89329986Y-26604455D01*
X89094695Y-26956593D01*
X88932623Y-27347868D01*
X88850000Y-27763243D01*
X81927397Y-27763243D01*
X82059140Y-27631500D01*
X82059140Y-27295202D01*
X82037696Y-27187397D01*
X81995633Y-27085848D01*
X81934567Y-26994456D01*
X81856844Y-26916733D01*
X81765452Y-26855667D01*
X81663902Y-26813604D01*
X81556098Y-26792160D01*
X81344260Y-26792160D01*
X81204760Y-26931660D01*
X80796760Y-26931660D01*
X80657260Y-26792160D01*
X80445422Y-26792160D01*
X80337618Y-26813604D01*
X80236068Y-26855667D01*
X80144676Y-26916733D01*
X80066953Y-26994456D01*
X80005887Y-27085848D01*
X79995449Y-27111047D01*
X79959141Y-27043118D01*
X79890410Y-26959370D01*
X79806662Y-26890639D01*
X79711114Y-26839568D01*
X79607439Y-26808118D01*
X79499620Y-26797499D01*
X78498860Y-26797499D01*
X78391041Y-26808118D01*
X78287366Y-26839568D01*
X78191818Y-26890639D01*
X78108070Y-26959370D01*
X78039339Y-27043118D01*
X77988268Y-27138666D01*
X77956818Y-27242341D01*
X77946199Y-27350160D01*
X75625000Y-27350160D01*
X75625000Y-25625000D01*
X97589771Y-25625000D01*
X97471064Y-25674170D01*
G04 #@! TD*
M02*
