G04 #@! TF.GenerationSoftware,KiCad,Pcbnew,(5.0.0)*
G04 #@! TF.CreationDate,2019-11-27T07:53:08+01:00*
G04 #@! TF.ProjectId,hexagon,68657861676F6E2E6B696361645F7063,rev?*
G04 #@! TF.SameCoordinates,Original*
G04 #@! TF.FileFunction,Soldermask,Bot*
G04 #@! TF.FilePolarity,Negative*
%FSLAX46Y46*%
G04 Gerber Fmt 4.6, Leading zero omitted, Abs format (unit mm)*
G04 Created by KiCad (PCBNEW (5.0.0)) date 11/27/19 07:53:08*
%MOMM*%
%LPD*%
G01*
G04 APERTURE LIST*
%ADD10R,1.400760X1.649680*%
%ADD11C,3.600000*%
%ADD12C,2.800000*%
%ADD13R,2.800000X2.800000*%
G04 APERTURE END LIST*
D10*
G04 #@! TO.C,C5*
X81000760Y-36975000D03*
X78999240Y-36975000D03*
G04 #@! TD*
D11*
G04 #@! TO.C,*
X91000000Y-27975000D03*
G04 #@! TD*
G04 #@! TO.C,*
X91000000Y-36975000D03*
G04 #@! TD*
D10*
G04 #@! TO.C,R1*
X84499240Y-34975000D03*
X86500760Y-34975000D03*
G04 #@! TD*
G04 #@! TO.C,C4*
X81000760Y-27975000D03*
X78999240Y-27975000D03*
G04 #@! TD*
G04 #@! TO.C,R2*
X86500760Y-29975000D03*
X84499240Y-29975000D03*
G04 #@! TD*
G04 #@! TO.C,C2*
X78999240Y-32475000D03*
X81000760Y-32475000D03*
G04 #@! TD*
D12*
G04 #@! TO.C,J5*
X98300000Y-27225000D03*
X98300000Y-30725000D03*
D13*
X98300000Y-37725000D03*
D12*
X98300000Y-34225000D03*
G04 #@! TD*
G04 #@! TO.C,J6*
X31700000Y-69999800D03*
D13*
X31700000Y-73499800D03*
D12*
X31700000Y-66499800D03*
X31700000Y-62999800D03*
G04 #@! TD*
G04 #@! TO.C,J1*
X31700000Y-86750000D03*
X31700000Y-90250000D03*
D13*
X31700000Y-97250000D03*
D12*
X31700000Y-93750000D03*
G04 #@! TD*
G04 #@! TO.C,J2*
X31700000Y-111750000D03*
D13*
X31700000Y-115250000D03*
D12*
X31700000Y-108250000D03*
X31700000Y-104750000D03*
G04 #@! TD*
G04 #@! TO.C,J3*
X68300000Y-90250000D03*
X68300000Y-86750000D03*
X68300000Y-83250000D03*
X68300000Y-79750000D03*
D13*
X68300000Y-72750000D03*
D12*
X68300000Y-76250000D03*
G04 #@! TD*
G04 #@! TO.C,J4*
X68300000Y-101250000D03*
D13*
X68300000Y-97750000D03*
D12*
X68300000Y-104750000D03*
X68300000Y-108250000D03*
X68300000Y-111750000D03*
X68300000Y-115250000D03*
G04 #@! TD*
G04 #@! TO.C,J7*
X68300000Y-56750000D03*
D13*
X68300000Y-53250000D03*
G04 #@! TD*
D11*
G04 #@! TO.C,*
X30000000Y-45000000D03*
G04 #@! TD*
G04 #@! TO.C,*
X60000000Y-112000000D03*
G04 #@! TD*
G04 #@! TO.C,*
X40000000Y-112000000D03*
G04 #@! TD*
M02*
