M48
;DRILL file {KiCad (5.0.0)} date 11/27/19 07:53:11
;FORMAT={-:-/ absolute / inch / decimal}
FMAT,2
INCH,TZ
T1C0.0157
T2C0.0472
%
G90
G05
M72
T1
X1.2445Y-2.2598
X1.3667Y-2.3375
X1.5825Y-2.7332
X1.7675Y-3.0807
X1.9815Y-2.9985
X1.9815Y-3.2465
X2.0729Y-3.3725
X3.055Y-1.4135
X3.0685Y-1.315
X3.1063Y-1.1004
X3.1112Y-1.4565
X3.1375Y-1.3366
X3.189Y-1.1014
X3.189Y-1.4575
X3.2673Y-1.3878
X3.4055Y-1.1801
X3.4055Y-1.377
T2
X1.248Y-3.4154
X1.248Y-3.5531
X1.248Y-3.6909
X1.248Y-3.8287
X1.248Y-4.124
X1.248Y-4.2618
X1.248Y-4.3996
X1.248Y-4.5374
X3.8701Y-1.0719
X3.8701Y-1.2096
X3.8701Y-1.3474
X3.8701Y-1.4852
X1.248Y-2.4803
X1.248Y-2.6181
X1.248Y-2.7559
X1.248Y-2.8937
X2.689Y-3.8484
X2.689Y-3.9862
X2.689Y-4.124
X2.689Y-4.2618
X2.689Y-4.3996
X2.689Y-4.5374
X2.689Y-2.8642
X2.689Y-3.002
X2.689Y-3.1398
X2.689Y-3.2776
X2.689Y-3.4154
X2.689Y-3.5531
X2.689Y-2.0965
X2.689Y-2.2343
T0
M30
