G04 #@! TF.GenerationSoftware,KiCad,Pcbnew,(5.0.0)*
G04 #@! TF.CreationDate,2019-11-27T07:53:08+01:00*
G04 #@! TF.ProjectId,hexagon,68657861676F6E2E6B696361645F7063,rev?*
G04 #@! TF.SameCoordinates,Original*
G04 #@! TF.FileFunction,Legend,Top*
G04 #@! TF.FilePolarity,Positive*
%FSLAX46Y46*%
G04 Gerber Fmt 4.6, Leading zero omitted, Abs format (unit mm)*
G04 Created by KiCad (PCBNEW (5.0.0)) date 11/27/19 07:53:08*
%MOMM*%
%LPD*%
G01*
G04 APERTURE LIST*
%ADD10C,0.100000*%
%ADD11C,0.150000*%
%ADD12C,0.381000*%
%ADD13C,0.001000*%
%ADD14C,0.120000*%
%ADD15C,0.152400*%
%ADD16C,0.190500*%
%ADD17C,0.050000*%
%ADD18C,0.250000*%
G04 APERTURE END LIST*
D10*
G04 #@! TO.C,U1*
X78650000Y-35585000D02*
X78800000Y-35585000D01*
X78650000Y-35575000D02*
X78650000Y-35425000D01*
X81350000Y-35575000D02*
X81350000Y-35425000D01*
X81350000Y-35575000D02*
X81200000Y-35575000D01*
X81200000Y-32875000D02*
X81350000Y-32875000D01*
X81350000Y-32875000D02*
X81350000Y-33025000D01*
X78650000Y-33025000D02*
X78650000Y-32775000D01*
D11*
G04 #@! TO.C,U2*
X81650000Y-29175000D02*
X78900000Y-29175000D01*
X81100000Y-32275000D02*
X78900000Y-32275000D01*
D12*
G04 #@! TO.C,J6*
X27600000Y-64749800D02*
X27200000Y-64749800D01*
X27600000Y-68249800D02*
X27200000Y-68249800D01*
X27600000Y-71749800D02*
X27200000Y-71749800D01*
X28700000Y-61249800D02*
X28700000Y-75249800D01*
X27600000Y-61249800D02*
X27600000Y-75249800D01*
X34800000Y-61249800D02*
X27200000Y-61249800D01*
X27200000Y-75249800D02*
X34800000Y-75249800D01*
X34800000Y-75249800D02*
X34800000Y-61249800D01*
D13*
G04 #@! TO.C,C1*
X49999900Y-86461600D02*
X53301900Y-86461600D01*
X49999900Y-84861400D02*
X49999900Y-86461600D01*
X53301900Y-84861400D02*
X49999900Y-84861400D01*
X53301900Y-86461600D02*
X53301900Y-84861400D01*
G04 #@! TO.C,C3*
X45694600Y-77599540D02*
X44094400Y-77599540D01*
X44094400Y-77599540D02*
X44094400Y-80901540D01*
X44094400Y-80901540D02*
X45694600Y-80901540D01*
X45694600Y-80901540D02*
X45694600Y-77599540D01*
G04 #@! TO.C,C6*
X40995600Y-72075040D02*
X40995600Y-68773040D01*
X39395400Y-72075040D02*
X40995600Y-72075040D01*
X39395400Y-68773040D02*
X39395400Y-72075040D01*
X40995600Y-68773040D02*
X39395400Y-68773040D01*
D12*
G04 #@! TO.C,J1*
X34800000Y-99000000D02*
X34800000Y-85000000D01*
X27200000Y-99000000D02*
X34800000Y-99000000D01*
X34800000Y-85000000D02*
X27200000Y-85000000D01*
X27600000Y-85000000D02*
X27600000Y-99000000D01*
X28700000Y-85000000D02*
X28700000Y-99000000D01*
X27600000Y-95500000D02*
X27200000Y-95500000D01*
X27600000Y-92000000D02*
X27200000Y-92000000D01*
X27600000Y-88500000D02*
X27200000Y-88500000D01*
G04 #@! TO.C,J2*
X27600000Y-106500000D02*
X27200000Y-106500000D01*
X27600000Y-110000000D02*
X27200000Y-110000000D01*
X27600000Y-113500000D02*
X27200000Y-113500000D01*
X28700000Y-103000000D02*
X28700000Y-117000000D01*
X27600000Y-103000000D02*
X27600000Y-117000000D01*
X34800000Y-103000000D02*
X27200000Y-103000000D01*
X27200000Y-117000000D02*
X34800000Y-117000000D01*
X34800000Y-117000000D02*
X34800000Y-103000000D01*
G04 #@! TO.C,J3*
X65200000Y-71000000D02*
X65200000Y-92000000D01*
X72800000Y-71000000D02*
X65200000Y-71000000D01*
X65200000Y-92000000D02*
X72800000Y-92000000D01*
X72400000Y-92000000D02*
X72400000Y-71000000D01*
X71300000Y-92000000D02*
X71300000Y-71000000D01*
X72400000Y-81500000D02*
X72800000Y-81500000D01*
X72400000Y-85000000D02*
X72800000Y-85000000D01*
X72400000Y-88500000D02*
X72800000Y-88500000D01*
X72400000Y-78000000D02*
X72800000Y-78000000D01*
X72400000Y-74500000D02*
X72800000Y-74500000D01*
G04 #@! TO.C,J4*
X72400000Y-99500000D02*
X72800000Y-99500000D01*
X72400000Y-103000000D02*
X72800000Y-103000000D01*
X72400000Y-113500000D02*
X72800000Y-113500000D01*
X72400000Y-110000000D02*
X72800000Y-110000000D01*
X72400000Y-106500000D02*
X72800000Y-106500000D01*
X71300000Y-117000000D02*
X71300000Y-96000000D01*
X72400000Y-117000000D02*
X72400000Y-96000000D01*
X65200000Y-117000000D02*
X72800000Y-117000000D01*
X72800000Y-96000000D02*
X65200000Y-96000000D01*
X65200000Y-96000000D02*
X65200000Y-117000000D01*
G04 #@! TO.C,J7*
X72400000Y-55000000D02*
X72800000Y-55000000D01*
X71300000Y-58500000D02*
X71300000Y-51500000D01*
X72400000Y-58500000D02*
X72400000Y-51500000D01*
X65200000Y-58500000D02*
X72800000Y-58500000D01*
X72800000Y-51500000D02*
X65200000Y-51500000D01*
X65200000Y-51500000D02*
X65200000Y-58500000D01*
D14*
G04 #@! TO.C,JP1*
X65400000Y-66830000D02*
X65400000Y-64170000D01*
X70600000Y-66830000D02*
X70600000Y-64170000D01*
X65400000Y-64170000D02*
X68510000Y-64170000D01*
X65970000Y-66830000D02*
X65970000Y-68350000D01*
X65400000Y-66830000D02*
X65970000Y-66830000D01*
X70030000Y-64170000D02*
X70600000Y-64170000D01*
X67490000Y-66830000D02*
X70600000Y-66830000D01*
D13*
G04 #@! TO.C,R3*
X30810200Y-58049160D02*
X32410400Y-58049160D01*
X32410400Y-58049160D02*
X32410400Y-54747160D01*
X32410400Y-54747160D02*
X30810200Y-54747160D01*
X30810200Y-54747160D02*
X30810200Y-58049160D01*
G04 #@! TO.C,R4*
X37365940Y-58572400D02*
X34063940Y-58572400D01*
X37365940Y-60172600D02*
X37365940Y-58572400D01*
X34063940Y-60172600D02*
X37365940Y-60172600D01*
X34063940Y-58572400D02*
X34063940Y-60172600D01*
G04 #@! TO.C,R5*
X63952120Y-66766440D02*
X62351920Y-66766440D01*
X62351920Y-66766440D02*
X62351920Y-70068440D01*
X62351920Y-70068440D02*
X63952120Y-70068440D01*
X63952120Y-70068440D02*
X63952120Y-66766440D01*
D10*
G04 #@! TO.C,SW1*
X34403700Y-53205200D02*
X37503700Y-53205200D01*
X37503700Y-53205200D02*
X37503700Y-55405200D01*
X37503700Y-55415200D02*
X34403700Y-55405200D01*
X34403700Y-55405200D02*
X34403700Y-53205200D01*
X36853700Y-54305200D02*
G75*
G03X36853700Y-54305200I-900000J0D01*
G01*
D15*
G04 #@! TO.C,U4*
X44196000Y-70269100D02*
X44196000Y-71031100D01*
X44196000Y-71031100D02*
X60198000Y-71031100D01*
X60198000Y-71031100D02*
X60198000Y-70269100D01*
D14*
G04 #@! TO.C,U3*
X53740100Y-77401500D02*
X52480100Y-77401500D01*
X46920100Y-77401500D02*
X48180100Y-77401500D01*
X53740100Y-81161500D02*
X53740100Y-77401500D01*
X46920100Y-83411500D02*
X46920100Y-77401500D01*
G04 #@! TO.C,J8*
X64130000Y-47830000D02*
X64130000Y-45170000D01*
X71870000Y-47830000D02*
X71870000Y-45170000D01*
X64130000Y-45170000D02*
X67240000Y-45170000D01*
X64700000Y-47830000D02*
X64700000Y-49350000D01*
X64130000Y-47830000D02*
X64700000Y-47830000D01*
X71300000Y-45170000D02*
X71870000Y-45170000D01*
X68760000Y-45170000D02*
X71870000Y-45170000D01*
X66220000Y-47830000D02*
X69780000Y-47830000D01*
G04 #@! TO.C,*
D11*
G04 #@! TO.C,J6*
D16*
X25686700Y-74419647D02*
X25639080Y-74514885D01*
X25639080Y-74657742D01*
X25686700Y-74800600D01*
X25781938Y-74895838D01*
X25877176Y-74943457D01*
X26067652Y-74991076D01*
X26210509Y-74991076D01*
X26400985Y-74943457D01*
X26496223Y-74895838D01*
X26591461Y-74800600D01*
X26639080Y-74657742D01*
X26639080Y-74562504D01*
X26591461Y-74419647D01*
X26543842Y-74372028D01*
X26210509Y-74372028D01*
X26210509Y-74562504D01*
X26639080Y-73943457D02*
X25639080Y-73943457D01*
X26639080Y-73372028D01*
X25639080Y-73372028D01*
X26639080Y-72895838D02*
X25639080Y-72895838D01*
X25639080Y-72657742D01*
X25686700Y-72514885D01*
X25781938Y-72419647D01*
X25877176Y-72372028D01*
X26067652Y-72324409D01*
X26210509Y-72324409D01*
X26400985Y-72372028D01*
X26496223Y-72419647D01*
X26591461Y-72514885D01*
X26639080Y-72657742D01*
X26639080Y-72895838D01*
X26591461Y-71181552D02*
X26639080Y-71038695D01*
X26639080Y-70800600D01*
X26591461Y-70705361D01*
X26543842Y-70657742D01*
X26448604Y-70610123D01*
X26353366Y-70610123D01*
X26258128Y-70657742D01*
X26210509Y-70705361D01*
X26162890Y-70800600D01*
X26115271Y-70991076D01*
X26067652Y-71086314D01*
X26020033Y-71133933D01*
X25924795Y-71181552D01*
X25829557Y-71181552D01*
X25734319Y-71133933D01*
X25686700Y-71086314D01*
X25639080Y-70991076D01*
X25639080Y-70752980D01*
X25686700Y-70610123D01*
X26639080Y-70181552D02*
X25639080Y-70181552D01*
X25639080Y-69943457D01*
X25686700Y-69800600D01*
X25781938Y-69705361D01*
X25877176Y-69657742D01*
X26067652Y-69610123D01*
X26210509Y-69610123D01*
X26400985Y-69657742D01*
X26496223Y-69705361D01*
X26591461Y-69800600D01*
X26639080Y-69943457D01*
X26639080Y-70181552D01*
X26353366Y-69229171D02*
X26353366Y-68752980D01*
X26639080Y-69324409D02*
X25639080Y-68991076D01*
X26639080Y-68657742D01*
X26591461Y-67610123D02*
X26639080Y-67467266D01*
X26639080Y-67229171D01*
X26591461Y-67133933D01*
X26543842Y-67086314D01*
X26448604Y-67038695D01*
X26353366Y-67038695D01*
X26258128Y-67086314D01*
X26210509Y-67133933D01*
X26162890Y-67229171D01*
X26115271Y-67419647D01*
X26067652Y-67514885D01*
X26020033Y-67562504D01*
X25924795Y-67610123D01*
X25829557Y-67610123D01*
X25734319Y-67562504D01*
X25686700Y-67514885D01*
X25639080Y-67419647D01*
X25639080Y-67181552D01*
X25686700Y-67038695D01*
X26543842Y-66038695D02*
X26591461Y-66086314D01*
X26639080Y-66229171D01*
X26639080Y-66324409D01*
X26591461Y-66467266D01*
X26496223Y-66562504D01*
X26400985Y-66610123D01*
X26210509Y-66657742D01*
X26067652Y-66657742D01*
X25877176Y-66610123D01*
X25781938Y-66562504D01*
X25686700Y-66467266D01*
X25639080Y-66324409D01*
X25639080Y-66229171D01*
X25686700Y-66086314D01*
X25734319Y-66038695D01*
X26639080Y-65133933D02*
X26639080Y-65610123D01*
X25639080Y-65610123D01*
X25639080Y-64181552D02*
X26639080Y-63848219D01*
X25639080Y-63514885D01*
X26543842Y-62610123D02*
X26591461Y-62657742D01*
X26639080Y-62800600D01*
X26639080Y-62895838D01*
X26591461Y-63038695D01*
X26496223Y-63133933D01*
X26400985Y-63181552D01*
X26210509Y-63229171D01*
X26067652Y-63229171D01*
X25877176Y-63181552D01*
X25781938Y-63133933D01*
X25686700Y-63038695D01*
X25639080Y-62895838D01*
X25639080Y-62800600D01*
X25686700Y-62657742D01*
X25734319Y-62610123D01*
X26543842Y-61610123D02*
X26591461Y-61657742D01*
X26639080Y-61800600D01*
X26639080Y-61895838D01*
X26591461Y-62038695D01*
X26496223Y-62133933D01*
X26400985Y-62181552D01*
X26210509Y-62229171D01*
X26067652Y-62229171D01*
X25877176Y-62181552D01*
X25781938Y-62133933D01*
X25686700Y-62038695D01*
X25639080Y-61895838D01*
X25639080Y-61800600D01*
X25686700Y-61657742D01*
X25734319Y-61610123D01*
G04 #@! TO.C,C1*
D17*
X51617566Y-85532928D02*
X51608042Y-85542452D01*
X51579471Y-85551976D01*
X51560423Y-85551976D01*
X51531852Y-85542452D01*
X51512804Y-85523404D01*
X51503280Y-85504357D01*
X51493757Y-85466261D01*
X51493757Y-85437690D01*
X51503280Y-85399595D01*
X51512804Y-85380547D01*
X51531852Y-85361500D01*
X51560423Y-85351976D01*
X51579471Y-85351976D01*
X51608042Y-85361500D01*
X51617566Y-85371023D01*
X51808042Y-85551976D02*
X51693757Y-85551976D01*
X51750900Y-85551976D02*
X51750900Y-85351976D01*
X51731852Y-85380547D01*
X51712804Y-85399595D01*
X51693757Y-85409119D01*
X51427090Y-86151976D02*
X51312804Y-86151976D01*
X51369947Y-86151976D02*
X51369947Y-85951976D01*
X51350900Y-85980547D01*
X51331852Y-85999595D01*
X51312804Y-86009119D01*
X51550900Y-85951976D02*
X51569947Y-85951976D01*
X51588995Y-85961500D01*
X51598519Y-85971023D01*
X51608042Y-85990071D01*
X51617566Y-86028166D01*
X51617566Y-86075785D01*
X51608042Y-86113880D01*
X51598519Y-86132928D01*
X51588995Y-86142452D01*
X51569947Y-86151976D01*
X51550900Y-86151976D01*
X51531852Y-86142452D01*
X51522328Y-86132928D01*
X51512804Y-86113880D01*
X51503280Y-86075785D01*
X51503280Y-86028166D01*
X51512804Y-85990071D01*
X51522328Y-85971023D01*
X51531852Y-85961500D01*
X51550900Y-85951976D01*
X51741376Y-85951976D02*
X51760423Y-85951976D01*
X51779471Y-85961500D01*
X51788995Y-85971023D01*
X51798519Y-85990071D01*
X51808042Y-86028166D01*
X51808042Y-86075785D01*
X51798519Y-86113880D01*
X51788995Y-86132928D01*
X51779471Y-86142452D01*
X51760423Y-86151976D01*
X51741376Y-86151976D01*
X51722328Y-86142452D01*
X51712804Y-86132928D01*
X51703280Y-86113880D01*
X51693757Y-86075785D01*
X51693757Y-86028166D01*
X51703280Y-85990071D01*
X51712804Y-85971023D01*
X51722328Y-85961500D01*
X51741376Y-85951976D01*
X51893757Y-86018642D02*
X51893757Y-86151976D01*
X51893757Y-86037690D02*
X51903280Y-86028166D01*
X51922328Y-86018642D01*
X51950900Y-86018642D01*
X51969947Y-86028166D01*
X51979471Y-86047214D01*
X51979471Y-86151976D01*
G04 #@! TO.C,C3*
X44765928Y-79283873D02*
X44775452Y-79293397D01*
X44784976Y-79321968D01*
X44784976Y-79341016D01*
X44775452Y-79369587D01*
X44756404Y-79388635D01*
X44737357Y-79398159D01*
X44699261Y-79407682D01*
X44670690Y-79407682D01*
X44632595Y-79398159D01*
X44613547Y-79388635D01*
X44594500Y-79369587D01*
X44584976Y-79341016D01*
X44584976Y-79321968D01*
X44594500Y-79293397D01*
X44604023Y-79283873D01*
X44584976Y-79217206D02*
X44584976Y-79093397D01*
X44661166Y-79160063D01*
X44661166Y-79131492D01*
X44670690Y-79112444D01*
X44680214Y-79102920D01*
X44699261Y-79093397D01*
X44746880Y-79093397D01*
X44765928Y-79102920D01*
X44775452Y-79112444D01*
X44784976Y-79131492D01*
X44784976Y-79188635D01*
X44775452Y-79207682D01*
X44765928Y-79217206D01*
X45384976Y-79379111D02*
X45384976Y-79493397D01*
X45384976Y-79436254D02*
X45184976Y-79436254D01*
X45213547Y-79455301D01*
X45232595Y-79474349D01*
X45242119Y-79493397D01*
X45184976Y-79255301D02*
X45184976Y-79236254D01*
X45194500Y-79217206D01*
X45204023Y-79207682D01*
X45223071Y-79198159D01*
X45261166Y-79188635D01*
X45308785Y-79188635D01*
X45346880Y-79198159D01*
X45365928Y-79207682D01*
X45375452Y-79217206D01*
X45384976Y-79236254D01*
X45384976Y-79255301D01*
X45375452Y-79274349D01*
X45365928Y-79283873D01*
X45346880Y-79293397D01*
X45308785Y-79302920D01*
X45261166Y-79302920D01*
X45223071Y-79293397D01*
X45204023Y-79283873D01*
X45194500Y-79274349D01*
X45184976Y-79255301D01*
X45251642Y-79017206D02*
X45384976Y-79017206D01*
X45251642Y-79102920D02*
X45356404Y-79102920D01*
X45375452Y-79093397D01*
X45384976Y-79074349D01*
X45384976Y-79045778D01*
X45375452Y-79026730D01*
X45365928Y-79017206D01*
G04 #@! TO.C,C6*
X40066928Y-70457373D02*
X40076452Y-70466897D01*
X40085976Y-70495468D01*
X40085976Y-70514516D01*
X40076452Y-70543087D01*
X40057404Y-70562135D01*
X40038357Y-70571659D01*
X40000261Y-70581182D01*
X39971690Y-70581182D01*
X39933595Y-70571659D01*
X39914547Y-70562135D01*
X39895500Y-70543087D01*
X39885976Y-70514516D01*
X39885976Y-70495468D01*
X39895500Y-70466897D01*
X39905023Y-70457373D01*
X39885976Y-70285944D02*
X39885976Y-70324040D01*
X39895500Y-70343087D01*
X39905023Y-70352611D01*
X39933595Y-70371659D01*
X39971690Y-70381182D01*
X40047880Y-70381182D01*
X40066928Y-70371659D01*
X40076452Y-70362135D01*
X40085976Y-70343087D01*
X40085976Y-70304992D01*
X40076452Y-70285944D01*
X40066928Y-70276420D01*
X40047880Y-70266897D01*
X40000261Y-70266897D01*
X39981214Y-70276420D01*
X39971690Y-70285944D01*
X39962166Y-70304992D01*
X39962166Y-70343087D01*
X39971690Y-70362135D01*
X39981214Y-70371659D01*
X40000261Y-70381182D01*
X40685976Y-70647849D02*
X40685976Y-70762135D01*
X40685976Y-70704992D02*
X40485976Y-70704992D01*
X40514547Y-70724040D01*
X40533595Y-70743087D01*
X40543119Y-70762135D01*
X40485976Y-70524040D02*
X40485976Y-70504992D01*
X40495500Y-70485944D01*
X40505023Y-70476420D01*
X40524071Y-70466897D01*
X40562166Y-70457373D01*
X40609785Y-70457373D01*
X40647880Y-70466897D01*
X40666928Y-70476420D01*
X40676452Y-70485944D01*
X40685976Y-70504992D01*
X40685976Y-70524040D01*
X40676452Y-70543087D01*
X40666928Y-70552611D01*
X40647880Y-70562135D01*
X40609785Y-70571659D01*
X40562166Y-70571659D01*
X40524071Y-70562135D01*
X40505023Y-70552611D01*
X40495500Y-70543087D01*
X40485976Y-70524040D01*
X40485976Y-70333563D02*
X40485976Y-70314516D01*
X40495500Y-70295468D01*
X40505023Y-70285944D01*
X40524071Y-70276420D01*
X40562166Y-70266897D01*
X40609785Y-70266897D01*
X40647880Y-70276420D01*
X40666928Y-70285944D01*
X40676452Y-70295468D01*
X40685976Y-70314516D01*
X40685976Y-70333563D01*
X40676452Y-70352611D01*
X40666928Y-70362135D01*
X40647880Y-70371659D01*
X40609785Y-70381182D01*
X40562166Y-70381182D01*
X40524071Y-70371659D01*
X40505023Y-70362135D01*
X40495500Y-70352611D01*
X40485976Y-70333563D01*
X40552642Y-70181182D02*
X40685976Y-70181182D01*
X40571690Y-70181182D02*
X40562166Y-70171659D01*
X40552642Y-70152611D01*
X40552642Y-70124040D01*
X40562166Y-70104992D01*
X40581214Y-70095468D01*
X40685976Y-70095468D01*
G04 #@! TO.C,J1*
D18*
X25952380Y-90440476D02*
X25952380Y-90916666D01*
X26428571Y-90964285D01*
X26380952Y-90916666D01*
X26333333Y-90821428D01*
X26333333Y-90583333D01*
X26380952Y-90488095D01*
X26428571Y-90440476D01*
X26523809Y-90392857D01*
X26761904Y-90392857D01*
X26857142Y-90440476D01*
X26904761Y-90488095D01*
X26952380Y-90583333D01*
X26952380Y-90821428D01*
X26904761Y-90916666D01*
X26857142Y-90964285D01*
X25952380Y-90107142D02*
X26952380Y-89773809D01*
X25952380Y-89440476D01*
G04 #@! TO.C,J2*
X26000000Y-109011904D02*
X25952380Y-109107142D01*
X25952380Y-109250000D01*
X26000000Y-109392857D01*
X26095238Y-109488095D01*
X26190476Y-109535714D01*
X26380952Y-109583333D01*
X26523809Y-109583333D01*
X26714285Y-109535714D01*
X26809523Y-109488095D01*
X26904761Y-109392857D01*
X26952380Y-109250000D01*
X26952380Y-109154761D01*
X26904761Y-109011904D01*
X26857142Y-108964285D01*
X26523809Y-108964285D01*
X26523809Y-109154761D01*
X26952380Y-108535714D02*
X25952380Y-108535714D01*
X26952380Y-107964285D01*
X25952380Y-107964285D01*
X26952380Y-107488095D02*
X25952380Y-107488095D01*
X25952380Y-107250000D01*
X26000000Y-107107142D01*
X26095238Y-107011904D01*
X26190476Y-106964285D01*
X26380952Y-106916666D01*
X26523809Y-106916666D01*
X26714285Y-106964285D01*
X26809523Y-107011904D01*
X26904761Y-107107142D01*
X26952380Y-107250000D01*
X26952380Y-107488095D01*
G04 #@! TO.C,J3*
X72877380Y-83440476D02*
X72877380Y-83916666D01*
X73353571Y-83964285D01*
X73305952Y-83916666D01*
X73258333Y-83821428D01*
X73258333Y-83583333D01*
X73305952Y-83488095D01*
X73353571Y-83440476D01*
X73448809Y-83392857D01*
X73686904Y-83392857D01*
X73782142Y-83440476D01*
X73829761Y-83488095D01*
X73877380Y-83583333D01*
X73877380Y-83821428D01*
X73829761Y-83916666D01*
X73782142Y-83964285D01*
X72877380Y-83107142D02*
X73877380Y-82773809D01*
X72877380Y-82440476D01*
G04 #@! TO.C,J4*
X73000000Y-109011904D02*
X72952380Y-109107142D01*
X72952380Y-109250000D01*
X73000000Y-109392857D01*
X73095238Y-109488095D01*
X73190476Y-109535714D01*
X73380952Y-109583333D01*
X73523809Y-109583333D01*
X73714285Y-109535714D01*
X73809523Y-109488095D01*
X73904761Y-109392857D01*
X73952380Y-109250000D01*
X73952380Y-109154761D01*
X73904761Y-109011904D01*
X73857142Y-108964285D01*
X73523809Y-108964285D01*
X73523809Y-109154761D01*
X73952380Y-108535714D02*
X72952380Y-108535714D01*
X73952380Y-107964285D01*
X72952380Y-107964285D01*
X73952380Y-107488095D02*
X72952380Y-107488095D01*
X72952380Y-107250000D01*
X73000000Y-107107142D01*
X73095238Y-107011904D01*
X73190476Y-106964285D01*
X73380952Y-106916666D01*
X73523809Y-106916666D01*
X73714285Y-106964285D01*
X73809523Y-107011904D01*
X73904761Y-107107142D01*
X73952380Y-107250000D01*
X73952380Y-107488095D01*
G04 #@! TO.C,J7*
X73952380Y-57392857D02*
X73952380Y-57869047D01*
X72952380Y-57869047D01*
X73428571Y-57059523D02*
X73428571Y-56726190D01*
X73952380Y-56583333D02*
X73952380Y-57059523D01*
X72952380Y-57059523D01*
X72952380Y-56583333D01*
X73952380Y-56154761D02*
X72952380Y-56154761D01*
X72952380Y-55916666D01*
X73000000Y-55773809D01*
X73095238Y-55678571D01*
X73190476Y-55630952D01*
X73380952Y-55583333D01*
X73523809Y-55583333D01*
X73714285Y-55630952D01*
X73809523Y-55678571D01*
X73904761Y-55773809D01*
X73952380Y-55916666D01*
X73952380Y-56154761D01*
G04 #@! TO.C,R3*
D17*
X31900776Y-56431493D02*
X31805538Y-56498160D01*
X31900776Y-56545779D02*
X31700776Y-56545779D01*
X31700776Y-56469588D01*
X31710300Y-56450540D01*
X31719823Y-56441017D01*
X31738871Y-56431493D01*
X31767442Y-56431493D01*
X31786490Y-56441017D01*
X31796014Y-56450540D01*
X31805538Y-56469588D01*
X31805538Y-56545779D01*
X31700776Y-56364826D02*
X31700776Y-56241017D01*
X31776966Y-56307683D01*
X31776966Y-56279112D01*
X31786490Y-56260064D01*
X31796014Y-56250540D01*
X31815061Y-56241017D01*
X31862680Y-56241017D01*
X31881728Y-56250540D01*
X31891252Y-56260064D01*
X31900776Y-56279112D01*
X31900776Y-56336255D01*
X31891252Y-56355302D01*
X31881728Y-56364826D01*
X31167442Y-56536255D02*
X31300776Y-56536255D01*
X31091252Y-56583874D02*
X31234109Y-56631493D01*
X31234109Y-56507683D01*
X31300776Y-56431493D02*
X31100776Y-56431493D01*
X31224585Y-56412445D02*
X31300776Y-56355302D01*
X31167442Y-56355302D02*
X31243633Y-56431493D01*
X31100776Y-56288636D02*
X31100776Y-56155302D01*
X31300776Y-56241017D01*
G04 #@! TO.C,R4*
X35681606Y-59662976D02*
X35614940Y-59567738D01*
X35567320Y-59662976D02*
X35567320Y-59462976D01*
X35643511Y-59462976D01*
X35662559Y-59472500D01*
X35672082Y-59482023D01*
X35681606Y-59501071D01*
X35681606Y-59529642D01*
X35672082Y-59548690D01*
X35662559Y-59558214D01*
X35643511Y-59567738D01*
X35567320Y-59567738D01*
X35853035Y-59529642D02*
X35853035Y-59662976D01*
X35805416Y-59453452D02*
X35757797Y-59596309D01*
X35881606Y-59596309D01*
X35576844Y-58929642D02*
X35576844Y-59062976D01*
X35529225Y-58853452D02*
X35481606Y-58996309D01*
X35605416Y-58996309D01*
X35681606Y-59062976D02*
X35681606Y-58862976D01*
X35700654Y-58986785D02*
X35757797Y-59062976D01*
X35757797Y-58929642D02*
X35681606Y-59005833D01*
X35824463Y-58862976D02*
X35957797Y-58862976D01*
X35872082Y-59062976D01*
G04 #@! TO.C,R5*
X63042496Y-68450773D02*
X62947258Y-68517440D01*
X63042496Y-68565059D02*
X62842496Y-68565059D01*
X62842496Y-68488868D01*
X62852020Y-68469820D01*
X62861543Y-68460297D01*
X62880591Y-68450773D01*
X62909162Y-68450773D01*
X62928210Y-68460297D01*
X62937734Y-68469820D01*
X62947258Y-68488868D01*
X62947258Y-68565059D01*
X62842496Y-68269820D02*
X62842496Y-68365059D01*
X62937734Y-68374582D01*
X62928210Y-68365059D01*
X62918686Y-68346011D01*
X62918686Y-68298392D01*
X62928210Y-68279344D01*
X62937734Y-68269820D01*
X62956781Y-68260297D01*
X63004400Y-68260297D01*
X63023448Y-68269820D01*
X63032972Y-68279344D01*
X63042496Y-68298392D01*
X63042496Y-68346011D01*
X63032972Y-68365059D01*
X63023448Y-68374582D01*
X63509162Y-68555535D02*
X63642496Y-68555535D01*
X63432972Y-68603154D02*
X63575829Y-68650773D01*
X63575829Y-68526963D01*
X63642496Y-68450773D02*
X63442496Y-68450773D01*
X63566305Y-68431725D02*
X63642496Y-68374582D01*
X63509162Y-68374582D02*
X63585353Y-68450773D01*
X63442496Y-68307916D02*
X63442496Y-68174582D01*
X63642496Y-68260297D01*
G04 #@! TO.C,U3*
D11*
X45282480Y-80073404D02*
X46092004Y-80073404D01*
X46187242Y-80025785D01*
X46234861Y-79978166D01*
X46282480Y-79882928D01*
X46282480Y-79692452D01*
X46234861Y-79597214D01*
X46187242Y-79549595D01*
X46092004Y-79501976D01*
X45282480Y-79501976D01*
X45282480Y-79121023D02*
X45282480Y-78501976D01*
X45663433Y-78835309D01*
X45663433Y-78692452D01*
X45711052Y-78597214D01*
X45758671Y-78549595D01*
X45853909Y-78501976D01*
X46092004Y-78501976D01*
X46187242Y-78549595D01*
X46234861Y-78597214D01*
X46282480Y-78692452D01*
X46282480Y-78978166D01*
X46234861Y-79073404D01*
X46187242Y-79121023D01*
G04 #@! TO.C,*
G04 #@! TD*
M02*
